<svg xmlns="http://www.w3.org/2000/svg" width="67.712" height="108.9" viewBox="0 0 67.712 108.9">
  <g id="b" transform="translate(0 0)">
    <g id="c" transform="translate(0 0)">
      <g id="Group_2499" data-name="Group 2499" transform="translate(0 0)">
        <path id="Path_3305" data-name="Path 3305" d="M195.77,189.117a.333.333,0,0,0,.1-.032l.007,0c-.037.012-.074.025-.111.034Z" transform="translate(-147.587 -142.544)" fill="#00354e"/>
        <path id="Path_3317" data-name="Path 3317" d="M.7,0H3.441a.7.7,0,0,1,.7.7V3.441a.7.7,0,0,1-.7.7H.7a.7.7,0,0,1-.7-.7V.7A.7.7,0,0,1,.7,0Z" transform="translate(45.03 51.232) rotate(45)" fill="#00354e"/>
        <path id="Path_3318" data-name="Path 3318" d="M.7,0H3.441a.7.7,0,0,1,.7.7V3.441a.7.7,0,0,1-.7.7H.7a.7.7,0,0,1-.7-.7V.7A.7.7,0,0,1,.7,0Z" transform="translate(45.028 56.724) rotate(45)" fill="#00354e"/>
        <path id="Path_3316" data-name="Path 3316" d="M.7,0H3.441a.7.7,0,0,1,.7.7V3.441a.7.7,0,0,1-.7.7H.7a.7.7,0,0,1-.7-.7V.7A.7.7,0,0,1,.7,0Z" transform="translate(51.485 47.521) rotate(45)" fill="#00354e"/>
        <path id="Path_3306" data-name="Path 3306" d="M195.77,189.124c.037-.01.074-.022.111-.034l-.007,0a.334.334,0,0,1-.1.032Z" transform="translate(-147.587 -142.552)" fill="#00354e"/>
        <path id="Path_3307" data-name="Path 3307" d="M197.044,187.5a3.675,3.675,0,0,1-.824.391C196.469,187.771,196.747,187.64,197.044,187.5Z" transform="translate(-147.927 -141.353)" fill="#00354e"/>
        <path id="Path_3308" data-name="Path 3308" d="M197.044,187.5a3.675,3.675,0,0,1-.824.391C196.469,187.771,196.747,187.64,197.044,187.5Z" transform="translate(-147.927 -141.353)" fill="#00354e"/>
        <path id="Path_3309" data-name="Path 3309" d="M87.544,28.655c-2.03-6.005-3.111-6.9-4.056-11.346-2-9.362,3.138-17.081,2.6-17.3-.571-.241-7.4,8.434-5.575,17.428.955,4.725,3.5,5.626,4.477,12.062.468,3.094,1.009,7.068-1.3,10.4a2.512,2.512,0,0,1-.8.7c.01-.256.03-.541.062-.871a28.016,28.016,0,0,0,.386-2.776c-.158-.1-.62,1.455-1.725,3.035-.246.349-1.952,2.786-2.806,2.183-.729-.517-.283-2.855-.82-3.094-.413-.182-1.012,1.048-2.072,3.155-2.432,4.831-2.72,5.186-2.978,5.459a6.152,6.152,0,0,1-2.257,1.531,17.626,17.626,0,0,0,.249-3.67c-.564,3.094-2.38,4.984-3.825,4.841a3.139,3.139,0,0,1-2.065-1.5c-.8-1.292-.443-2.658-.812-2.749l-.222,1.344v-.032c-.615,3.094-2.6,4.981-4.179,4.839a3.414,3.414,0,0,1-2.254-1.5c-.837-1.228-.551-2.562-.869-2.761a.118.118,0,0,0-.039-.02.039.039,0,0,0-.02.007c-.288.207-.517.79-1.029,1.162-5.511,3.094-7.735,5.23-9.22,6.975-3.8,4.465-3.308,11.036-3.236,11.88.527,6.064,4.438,13.148,11.425,15.089.655.182,7.913,2.058,13.495-3.264,5.328-5.077,4.551-12.34,4.442-13.226a16.107,16.107,0,0,0-2.855-7.307,16.96,16.96,0,0,1,.871,7.268c-.17,1.681-.7,6.894-4.979,10.061A11.74,11.74,0,0,1,56.4,78.571c-6.466-1.322-9.138-7.686-9.54-8.683a13.214,13.214,0,0,1-.389-7.475,14.2,14.2,0,0,1,3.857-7.145,17.071,17.071,0,0,1,4.78-3.249l.135.281a5.108,5.108,0,0,0,2.668,2.941c1.361.662,3.195.738,4.022.143.738-.529,1.1-1.555,1.5-3.012.044-.158.084-.313.121-.468,2.082,1.713,4.246,2.422,5.479,1.58A1.973,1.973,0,0,0,69.523,53a4.516,4.516,0,0,0,2.52-.039c2.589-1.536,3.436-4.944,3.832-6.121.61-1.821.952-3.827,1.208-3.761s-.177,2.016.561,3.094a1.964,1.964,0,0,0,2.318.588c.037-.01.071-.022.108-.034.241-.123.512-.256.8-.4,2.232-1.1,5.705-2.84,6.985-5.685,1.615-3.591,1.295-7.209-.32-11.974Zm-7.48,17.976a.3.3,0,0,1-.1.032.937.937,0,0,0,.108-.037Z" transform="translate(-32.495 0)" fill="#00354e"/>
        <g id="Group_2498" data-name="Group 2498" transform="translate(0 94.524)">
          <path id="Union_9" data-name="Union 9" d="M60.41,12.628a3.694,3.694,0,0,0-.448,1.349h-.455V9.52h.458q.779,4.356,3.687,4.356a2.536,2.536,0,0,0,2.028-.834,2.781,2.781,0,0,0,.719-1.866,2.522,2.522,0,0,0-.633-1.747,7.679,7.679,0,0,0-2.306-1.494,16.25,16.25,0,0,1-2.252-1.253,3.649,3.649,0,0,1-1.184-1.4A4.075,4.075,0,0,1,59.6,3.455,3.478,3.478,0,0,1,60.518.987,3.045,3.045,0,0,1,62.846,0a3.878,3.878,0,0,1,1.482.286,3.858,3.858,0,0,1,1.427,1.186A2.323,2.323,0,0,0,66.23.256h.4v3.63h-.4A5.057,5.057,0,0,0,65,1.391,2.772,2.772,0,0,0,62.955.48a1.88,1.88,0,0,0-1.625.669,2.346,2.346,0,0,0-.517,1.467,2.242,2.242,0,0,0,.65,1.627,8.659,8.659,0,0,0,2.316,1.514,23.284,23.284,0,0,1,2.328,1.282,3.5,3.5,0,0,1,1.167,1.344,4.29,4.29,0,0,1,.438,1.984,4.03,4.03,0,0,1-1.061,2.894,3.737,3.737,0,0,1-2.838,1.115A4.158,4.158,0,0,1,60.41,12.628ZM48.015,14.12v-.47h.256a1.761,1.761,0,0,0,1.194-.276,1.278,1.278,0,0,0,.342-.7,17.971,17.971,0,0,0,.074-2.163v-6.8A17.176,17.176,0,0,0,49.8,1.627a1,1,0,0,0-.357-.7,2.281,2.281,0,0,0-1.176-.2V.256h8.868l.293,3.455H57a5.787,5.787,0,0,0-.719-2.06A1.817,1.817,0,0,0,55.268.884,7.976,7.976,0,0,0,53.383.726h-1.72V6.544h1.317a3.181,3.181,0,0,0,1.267-.175.863.863,0,0,0,.475-.527,5.352,5.352,0,0,0,.113-1.376h.431V9.212h-.431a4.474,4.474,0,0,0-.175-1.548.88.88,0,0,0-.507-.512,3.785,3.785,0,0,0-1.13-.118H51.66v3.283a7.892,7.892,0,0,0,.283,2.9q.284.436,1.528.435h.923a3.985,3.985,0,0,0,1.61-.28,3,3,0,0,0,1.2-1.154,7.188,7.188,0,0,0,.9-2.407l.01,0h.438l-.266,4.314Zm-11.489,0v-.47h.256a1.76,1.76,0,0,0,1.194-.276,1.3,1.3,0,0,0,.344-.7,17.9,17.9,0,0,0,.074-2.163v-6.8a17.113,17.113,0,0,0-.079-2.085,1,1,0,0,0-.357-.7,2.28,2.28,0,0,0-1.176-.2V.256H45.65l.293,3.455h-.431a5.791,5.791,0,0,0-.719-2.06A1.816,1.816,0,0,0,43.782.884,7.975,7.975,0,0,0,41.9.726h-1.72V6.544h1.317a3.182,3.182,0,0,0,1.267-.175.862.862,0,0,0,.475-.527,5.341,5.341,0,0,0,.113-1.376h.431V9.212h-.431a4.475,4.475,0,0,0-.175-1.548.88.88,0,0,0-.507-.512,3.774,3.774,0,0,0-1.13-.118H40.174v3.283a7.884,7.884,0,0,0,.283,2.9q.284.436,1.528.435h.925a3.985,3.985,0,0,0,1.609-.28,3,3,0,0,0,1.2-1.154,7.188,7.188,0,0,0,.9-2.407l.005,0h.438L46.8,14.12Zm-11.2,0v-.47H25.8a1.956,1.956,0,0,0,1.1-.224,1.045,1.045,0,0,0,.389-.7,17.759,17.759,0,0,0,.081-2.213V3.763a16.638,16.638,0,0,0-.086-2.178.963.963,0,0,0-.367-.674A2.577,2.577,0,0,0,25.7.726h-.239V.256L27.5.194,29.827.113q5.087,0,5.087,3.271a2.828,2.828,0,0,1-.874,2.168,4.935,4.935,0,0,1-2.62,1.1,4.921,4.921,0,0,1,3.131,1.176,3.355,3.355,0,0,1,1.024,2.505,3.688,3.688,0,0,1-.7,2.254A3.188,3.188,0,0,1,33.1,13.829a11.61,11.61,0,0,1-2.9.29ZM29.17,6.963h0v3.089c0,1.314.022,2.151.064,2.505a1.324,1.324,0,0,0,.342.807,1.6,1.6,0,0,0,1.1.276,2.757,2.757,0,0,0,2.2-.839,3.737,3.737,0,0,0,.731-2.515,3.457,3.457,0,0,0-.827-2.53,4.121,4.121,0,0,0-2.914-.812C29.647,6.943,29.416,6.95,29.17,6.963Zm.387-.492a3.944,3.944,0,0,0,2.7-.694,3.009,3.009,0,0,0,.723-2.25A3.973,3.973,0,0,0,32.7,1.851a2.034,2.034,0,0,0-.852-.916A4.215,4.215,0,0,0,29.906.613q-.358,0-.731.029V6.461h0C29.325,6.468,29.453,6.47,29.556,6.47ZM19.5,14.12v-.47a3.3,3.3,0,0,0,1.213-.148.583.583,0,0,0,.315-.588,6.443,6.443,0,0,0-.421-1.339l-.952-2.567H14.947l-.32.879a9.732,9.732,0,0,0-.714,2.5,1.167,1.167,0,0,0,.379.945,1.458,1.458,0,0,0,.975.322v.47H11.58v-.47A1.918,1.918,0,0,0,12.806,13a8.356,8.356,0,0,0,.97-2.131c.03-.1.177-.5.438-1.186L17.819.062h.357L22.32,11.073l.569,1.452a1.942,1.942,0,0,0,.517.773,1.76,1.76,0,0,0,.975.352v.47ZM15.122,8.548H19.5l-2.2-5.909ZM0,14.117v-.47H.367a1.956,1.956,0,0,0,1.1-.224,1.069,1.069,0,0,0,.394-.7,16.459,16.459,0,0,0,.086-2.213v-6.8a16.036,16.036,0,0,0-.086-2.136A.957.957,0,0,0,1.5.911,2.577,2.577,0,0,0,.276.726H0V.256H5.956v.47H5.407a2.716,2.716,0,0,0-1.2.17.9.9,0,0,0-.379.628,14.551,14.551,0,0,0-.1,2.188v7.258a13.707,13.707,0,0,0,.074,1.88.877.877,0,0,0,.4.588,2.975,2.975,0,0,0,1.4.209h.943a4.793,4.793,0,0,0,1.7-.224A2.469,2.469,0,0,0,9.3,12.441a8.2,8.2,0,0,0,.911-2.4h.426l-.091,4.078Zm59.5-.14h0ZM10.632,10.039h.005Z" transform="translate(0 0)" fill="#00354e"/>
        </g>
      </g>
    </g>
  </g>
</svg>
