<svg xmlns="http://www.w3.org/2000/svg" xmlns:xlink="http://www.w3.org/1999/xlink" width="144.637" height="44.886" viewBox="0 0 144.637 44.886">
  <defs>
    <linearGradient id="linear-gradient" x1="-0.326" y1="0.534" x2="1.32" y2="0.733" gradientUnits="objectBoundingBox">
      <stop offset="0" stop-color="#e1d076"/>
      <stop offset="1" stop-color="#b9802b"/>
    </linearGradient>
    <filter id="Union_9" x="0" y="0" width="144.637" height="44.886" filterUnits="userSpaceOnUse">
      <feOffset dy="3" input="SourceAlpha"/>
      <feGaussianBlur stdDeviation="3" result="blur"/>
      <feFlood flood-opacity="0.161"/>
      <feComposite operator="in" in2="blur"/>
      <feComposite in="SourceGraphic"/>
    </filter>
  </defs>
  <g id="Group_2498" data-name="Group 2498" transform="translate(9 6)">
    <g transform="matrix(1, 0, 0, 1, -9, -6)" filter="url(#Union_9)">
      <path id="Union_9-2" data-name="Union 9" d="M112.98,23.618a6.91,6.91,0,0,0-.838,2.522h-.851V17.8h.856q1.457,8.147,6.9,8.147a4.743,4.743,0,0,0,3.793-1.561,5.2,5.2,0,0,0,1.344-3.489A4.717,4.717,0,0,0,123,17.634a14.361,14.361,0,0,0-4.313-2.794,30.391,30.391,0,0,1-4.211-2.343,6.824,6.824,0,0,1-2.214-2.61,7.622,7.622,0,0,1-.8-3.425,6.505,6.505,0,0,1,1.722-4.617A5.7,5.7,0,0,1,117.537,0a7.252,7.252,0,0,1,2.771.534,7.215,7.215,0,0,1,2.67,2.219,4.344,4.344,0,0,0,.888-2.274h.755V7.268h-.755a9.457,9.457,0,0,0-2.3-4.668A5.185,5.185,0,0,0,117.74.9,3.516,3.516,0,0,0,114.7,2.15a4.388,4.388,0,0,0-.966,2.743,4.193,4.193,0,0,0,1.215,3.043,16.2,16.2,0,0,0,4.332,2.831,43.549,43.549,0,0,1,4.354,2.4,6.552,6.552,0,0,1,2.182,2.513,8.023,8.023,0,0,1,.819,3.71,7.537,7.537,0,0,1-1.984,5.413,6.989,6.989,0,0,1-5.307,2.085A7.776,7.776,0,0,1,112.98,23.618ZM89.8,26.407v-.879h.479a3.293,3.293,0,0,0,2.232-.515,2.389,2.389,0,0,0,.64-1.312,33.611,33.611,0,0,0,.138-4.046V6.941a32.123,32.123,0,0,0-.147-3.9,1.875,1.875,0,0,0-.667-1.312,4.266,4.266,0,0,0-2.2-.373V.479h16.584l.548,6.463H106.6a10.822,10.822,0,0,0-1.344-3.853,3.4,3.4,0,0,0-1.892-1.436,14.917,14.917,0,0,0-3.526-.295H96.621V12.24h2.462a5.949,5.949,0,0,0,2.37-.327,1.614,1.614,0,0,0,.889-.985,10.009,10.009,0,0,0,.212-2.573h.805v8.874h-.805a8.367,8.367,0,0,0-.327-2.9,1.645,1.645,0,0,0-.948-.957,7.079,7.079,0,0,0-2.113-.221h-2.55V19.3q0,4.605.529,5.422t2.858.814h1.726a7.453,7.453,0,0,0,3.01-.524,5.612,5.612,0,0,0,2.251-2.159,13.444,13.444,0,0,0,1.685-4.5l.018-.009h.819l-.5,8.069Zm-21.487,0v-.879h.479a3.291,3.291,0,0,0,2.232-.515,2.426,2.426,0,0,0,.644-1.312,33.472,33.472,0,0,0,.138-4.046V6.941a32.007,32.007,0,0,0-.147-3.9,1.872,1.872,0,0,0-.667-1.312,4.265,4.265,0,0,0-2.2-.373V.479H85.376l.548,6.463h-.806a10.831,10.831,0,0,0-1.344-3.853,3.4,3.4,0,0,0-1.892-1.436,14.915,14.915,0,0,0-3.526-.295H75.139V12.24H77.6a5.95,5.95,0,0,0,2.37-.327,1.612,1.612,0,0,0,.888-.985,9.989,9.989,0,0,0,.212-2.573h.806v8.874h-.806a8.369,8.369,0,0,0-.326-2.9,1.646,1.646,0,0,0-.948-.957,7.058,7.058,0,0,0-2.113-.221h-2.55V19.3q0,4.605.529,5.422t2.858.814h1.731a7.452,7.452,0,0,0,3.01-.524,5.615,5.615,0,0,0,2.251-2.159,13.444,13.444,0,0,0,1.684-4.5l.01-.009h.819l-.5,8.069Zm-20.943,0v-.879h.888a3.657,3.657,0,0,0,2.062-.419,1.954,1.954,0,0,0,.727-1.312,33.213,33.213,0,0,0,.152-4.138V7.038a31.116,31.116,0,0,0-.161-4.073A1.8,1.8,0,0,0,50.352,1.7a4.82,4.82,0,0,0-2.283-.345h-.447V.479L51.438.364,55.783.212Q65.3.212,65.3,6.329a5.288,5.288,0,0,1-1.634,4.055,9.23,9.23,0,0,1-4.9,2.063,9.2,9.2,0,0,1,5.857,2.2,6.275,6.275,0,0,1,1.915,4.686,6.9,6.9,0,0,1-1.3,4.216,5.962,5.962,0,0,1-3.328,2.315,21.714,21.714,0,0,1-5.431.543Zm7.185-13.385h0V18.8c0,2.458.041,4.023.12,4.686a2.477,2.477,0,0,0,.64,1.51,3,3,0,0,0,2.062.515,5.157,5.157,0,0,0,4.106-1.57,6.99,6.99,0,0,0,1.367-4.7A6.466,6.466,0,0,0,61.307,14.5q-1.547-1.519-5.45-1.519C55.448,12.985,55.015,13,54.554,13.022Zm.723-.921q3.694,0,5.05-1.3A5.627,5.627,0,0,0,61.68,6.6a7.43,7.43,0,0,0-.529-3.134,3.8,3.8,0,0,0-1.593-1.713,7.883,7.883,0,0,0-3.627-.6q-.67,0-1.367.055V12.083h0C54.844,12.1,55.084,12.1,55.277,12.1Zm-18.8,14.306v-.879a6.178,6.178,0,0,0,2.269-.276,1.09,1.09,0,0,0,.589-1.1,12.05,12.05,0,0,0-.787-2.5l-1.781-4.8h-8.81l-.6,1.643a18.2,18.2,0,0,0-1.335,4.667,2.182,2.182,0,0,0,.709,1.768,2.727,2.727,0,0,0,1.823.6v.879h-6.9v-.879a3.587,3.587,0,0,0,2.293-1.215,15.627,15.627,0,0,0,1.813-3.986c.056-.193.331-.93.819-2.219L33.326.115h.667l7.751,20.594,1.063,2.716a3.633,3.633,0,0,0,.966,1.445,3.292,3.292,0,0,0,1.823.658v.879ZM28.281,15.986h8.2L32.373,4.934ZM0,26.4v-.879H.686A3.657,3.657,0,0,0,2.748,25.1a2,2,0,0,0,.737-1.312,30.783,30.783,0,0,0,.161-4.138V6.941a29.992,29.992,0,0,0-.161-4A1.789,1.789,0,0,0,2.8,1.7,4.819,4.819,0,0,0,.516,1.358H0V.479H11.139v.879H10.113a5.079,5.079,0,0,0-2.242.318,1.679,1.679,0,0,0-.709,1.174,27.213,27.213,0,0,0-.179,4.092V20.515a25.635,25.635,0,0,0,.138,3.517,1.641,1.641,0,0,0,.746,1.1,5.565,5.565,0,0,0,2.61.391H12.24a8.964,8.964,0,0,0,3.176-.419,4.617,4.617,0,0,0,1.97-1.836,15.344,15.344,0,0,0,1.7-4.493h.8l-.17,7.627Zm111.286-.263h0Zm-91.4-7.365h.01Z" transform="translate(9 6)" fill="url(#linear-gradient)"/>
    </g>
  </g>
</svg>
