<svg xmlns="http://www.w3.org/2000/svg" xmlns:xlink="http://www.w3.org/1999/xlink" width="140.465" height="44" viewBox="0 0 140.465 44">
  <defs>
    <filter id="Union_9" x="0" y="0" width="140.465" height="44" filterUnits="userSpaceOnUse">
      <feOffset dy="3" input="SourceAlpha"/>
      <feGaussianBlur stdDeviation="3" result="blur"/>
      <feFlood flood-opacity="0.161"/>
      <feComposite operator="in" in2="blur"/>
      <feComposite in="SourceGraphic"/>
    </filter>
  </defs>
  <g id="Group_2498" data-name="Group 2498" transform="translate(9 6)">
    <g transform="matrix(1, 0, 0, 1, -9, -6)" filter="url(#Union_9)">
      <path id="Union_9-2" data-name="Union 9" d="M109.258,22.84a6.682,6.682,0,0,0-.81,2.439h-.823V17.218h.828q1.409,7.879,6.668,7.879a4.586,4.586,0,0,0,3.668-1.509,5.029,5.029,0,0,0,1.3-3.374,4.562,4.562,0,0,0-1.144-3.16,13.888,13.888,0,0,0-4.171-2.7,29.389,29.389,0,0,1-4.073-2.265,6.6,6.6,0,0,1-2.141-2.524,7.371,7.371,0,0,1-.77-3.312,6.291,6.291,0,0,1,1.665-4.464A5.508,5.508,0,0,1,113.665,0a7.013,7.013,0,0,1,2.68.516,6.978,6.978,0,0,1,2.582,2.146,4.2,4.2,0,0,0,.859-2.2h.73V7.029h-.73a9.146,9.146,0,0,0-2.225-4.514,5.014,5.014,0,0,0-3.7-1.647,3.4,3.4,0,0,0-2.938,1.211,4.244,4.244,0,0,0-.935,2.653,4.054,4.054,0,0,0,1.175,2.943,15.661,15.661,0,0,0,4.189,2.737,42.114,42.114,0,0,1,4.211,2.319,6.336,6.336,0,0,1,2.11,2.431,7.758,7.758,0,0,1,.792,3.588,7.289,7.289,0,0,1-1.919,5.235A6.759,6.759,0,0,1,115.414,26,7.52,7.52,0,0,1,109.258,22.84Zm-22.417,2.7v-.851H87.3a3.184,3.184,0,0,0,2.159-.5,2.311,2.311,0,0,0,.619-1.269,32.5,32.5,0,0,0,.133-3.912V6.713a31.065,31.065,0,0,0-.142-3.77,1.813,1.813,0,0,0-.645-1.269A4.125,4.125,0,0,0,87.3,1.313V.463h16.038l.53,6.25h-.779a10.466,10.466,0,0,0-1.3-3.726A3.286,3.286,0,0,0,99.959,1.6a14.425,14.425,0,0,0-3.41-.285H93.438V11.836h2.381a5.753,5.753,0,0,0,2.292-.316,1.561,1.561,0,0,0,.859-.953,9.679,9.679,0,0,0,.2-2.488h.779v8.582h-.779a8.091,8.091,0,0,0-.316-2.8,1.591,1.591,0,0,0-.917-.926,6.846,6.846,0,0,0-2.043-.214H93.434V18.66q0,4.453.512,5.244t2.764.788h1.669a7.207,7.207,0,0,0,2.911-.507,5.427,5.427,0,0,0,2.177-2.088,13,13,0,0,0,1.629-4.354l.018-.009h.792l-.481,7.8Zm-20.779,0v-.851h.463a3.183,3.183,0,0,0,2.159-.5,2.346,2.346,0,0,0,.623-1.269,32.369,32.369,0,0,0,.134-3.912V6.713a30.951,30.951,0,0,0-.143-3.77,1.81,1.81,0,0,0-.645-1.269,4.124,4.124,0,0,0-2.128-.361V.463H82.563l.53,6.25h-.779a10.474,10.474,0,0,0-1.3-3.726A3.285,3.285,0,0,0,79.185,1.6a14.423,14.423,0,0,0-3.41-.285H72.663V11.836h2.382a5.754,5.754,0,0,0,2.292-.316,1.559,1.559,0,0,0,.859-.953,9.66,9.66,0,0,0,.2-2.488h.779v8.582H78.4a8.094,8.094,0,0,0-.316-2.8,1.592,1.592,0,0,0-.917-.926,6.826,6.826,0,0,0-2.043-.214H72.659V18.66q0,4.453.512,5.244t2.764.788h1.674a7.207,7.207,0,0,0,2.911-.507A5.43,5.43,0,0,0,82.7,22.1a13,13,0,0,0,1.629-4.354l.009-.009h.792l-.481,7.8Zm-20.253,0v-.851h.859a3.537,3.537,0,0,0,1.994-.405,1.89,1.89,0,0,0,.7-1.268,32.119,32.119,0,0,0,.147-4V6.806a30.091,30.091,0,0,0-.156-3.939,1.742,1.742,0,0,0-.663-1.22,4.662,4.662,0,0,0-2.208-.334h-.432V.463l3.69-.111L53.946.2q9.2,0,9.2,5.916a5.114,5.114,0,0,1-1.58,3.922,8.926,8.926,0,0,1-4.738,2,8.9,8.9,0,0,1,5.664,2.127A6.068,6.068,0,0,1,64.344,18.7a6.671,6.671,0,0,1-1.26,4.078,5.765,5.765,0,0,1-3.218,2.239,21,21,0,0,1-5.253.525Zm6.948-12.944h0v5.586c0,2.377.04,3.89.116,4.531a2.4,2.4,0,0,0,.619,1.46,2.9,2.9,0,0,0,1.994.5,4.987,4.987,0,0,0,3.971-1.518A6.76,6.76,0,0,0,60.783,18.6a6.253,6.253,0,0,0-1.5-4.576q-1.5-1.469-5.27-1.469C53.621,12.557,53.2,12.571,52.757,12.593Zm.7-.891q3.572,0,4.883-1.255a5.442,5.442,0,0,0,1.308-4.069,7.185,7.185,0,0,0-.512-3.031A3.678,3.678,0,0,0,57.6,1.691a7.624,7.624,0,0,0-3.507-.583q-.648,0-1.322.053V11.685h0C53.038,11.7,53.269,11.7,53.456,11.7ZM35.273,25.537v-.851a5.974,5.974,0,0,0,2.195-.267,1.054,1.054,0,0,0,.57-1.064,11.653,11.653,0,0,0-.761-2.421l-1.723-4.643h-8.52l-.579,1.589a17.6,17.6,0,0,0-1.291,4.513,2.11,2.11,0,0,0,.685,1.709,2.638,2.638,0,0,0,1.763.583v.851H20.944v-.851a3.469,3.469,0,0,0,2.217-1.175,15.113,15.113,0,0,0,1.754-3.855c.054-.187.32-.9.792-2.146L32.228.111h.645l7.5,19.915L41.4,22.653a3.513,3.513,0,0,0,.935,1.4,3.183,3.183,0,0,0,1.763.636v.851ZM27.349,15.459h7.928L31.306,4.772ZM0,25.533v-.851H.663a3.537,3.537,0,0,0,1.994-.405,1.934,1.934,0,0,0,.712-1.268,29.769,29.769,0,0,0,.155-4V6.713A29,29,0,0,0,3.37,2.849a1.73,1.73,0,0,0-.663-1.2A4.661,4.661,0,0,0,.5,1.313H0V.463H10.772v.85H9.78a4.912,4.912,0,0,0-2.168.307,1.623,1.623,0,0,0-.685,1.135,26.317,26.317,0,0,0-.173,3.957V19.839a24.79,24.79,0,0,0,.133,3.4A1.587,1.587,0,0,0,7.607,24.3a5.381,5.381,0,0,0,2.524.378h1.705a8.669,8.669,0,0,0,3.072-.405,4.465,4.465,0,0,0,1.9-1.776,14.839,14.839,0,0,0,1.647-4.345h.77l-.165,7.376Zm107.62-.254h0ZM19.23,18.157h.009Z" transform="translate(9 6)" fill="#fff"/>
    </g>
  </g>
</svg>
