<svg xmlns="http://www.w3.org/2000/svg" xmlns:xlink="http://www.w3.org/1999/xlink" width="103.696" height="174.316" viewBox="0 0 103.696 174.316">
  <defs>
    <linearGradient id="linear-gradient" x1="-0.137" y1="0.5" x2="1.137" y2="0.5" gradientUnits="objectBoundingBox">
      <stop offset="0" stop-color="#e1d076"/>
      <stop offset="1" stop-color="#b9802b"/>
    </linearGradient>
    <linearGradient id="linear-gradient-3" x1="-0.137" y1="0.5" x2="1.137" y2="0.5" xlink:href="#linear-gradient"/>
    <linearGradient id="linear-gradient-4" x1="0" y1="0.5" x2="1" y2="0.5" xlink:href="#linear-gradient"/>
    <filter id="Path_3309" x="0" y="0" width="103.696" height="174.316" filterUnits="userSpaceOnUse">
      <feOffset dy="3" input="SourceAlpha"/>
      <feGaussianBlur stdDeviation="3" result="blur"/>
      <feFlood flood-opacity="0.161"/>
      <feComposite operator="in" in2="blur"/>
      <feComposite in="SourceGraphic"/>
    </filter>
  </defs>
  <g id="Group_4176" data-name="Group 4176" transform="translate(-10.84 6)">
    <path id="Path_3317" data-name="Path 3317" d="M1.316,0H6.435A1.316,1.316,0,0,1,7.751,1.316V6.435A1.316,1.316,0,0,1,6.435,7.751H1.316A1.316,1.316,0,0,1,0,6.435V1.316A1.316,1.316,0,0,1,1.316,0Z" transform="translate(84.216 95.815) rotate(45)" fill="url(#linear-gradient)"/>
    <path id="Path_3318" data-name="Path 3318" d="M1.316,0H6.435A1.316,1.316,0,0,1,7.751,1.316V6.435A1.316,1.316,0,0,1,6.435,7.751H1.316A1.316,1.316,0,0,1,0,6.435V1.316A1.316,1.316,0,0,1,1.316,0Z" transform="translate(84.213 106.086) rotate(45)" fill="url(#linear-gradient)"/>
    <path id="Path_3316" data-name="Path 3316" d="M1.316,0H6.435A1.316,1.316,0,0,1,7.751,1.316V6.435A1.316,1.316,0,0,1,6.435,7.751H1.316A1.316,1.316,0,0,1,0,6.435V1.316A1.316,1.316,0,0,1,1.316,0Z" transform="translate(96.29 88.875) rotate(45)" fill="url(#linear-gradient-3)"/>
    <g transform="matrix(1, 0, 0, 1, 10.84, -6)" filter="url(#Path_3309)">
      <path id="Path_3309-2" data-name="Path 3309" d="M126.217,53.592c-3.8-11.231-5.818-12.907-7.586-21.22C114.9,14.863,124.5.428,123.5.009,122.434-.442,109.67,15.784,113.076,32.6c1.786,8.838,6.555,10.522,8.373,22.559.875,5.786,1.887,13.22-2.426,19.448a4.7,4.7,0,0,1-1.505,1.3c.018-.479.055-1.013.115-1.629.327-3.2.962-5.04.723-5.192-.295-.193-1.16,2.72-3.227,5.675-.46.654-3.65,5.211-5.247,4.083-1.362-.967-.529-5.339-1.533-5.786-.773-.341-1.892,1.961-3.876,5.9-4.548,9.036-5.086,9.7-5.57,10.209a11.5,11.5,0,0,1-4.221,2.863,32.967,32.967,0,0,0,.465-6.863c-1.054,5.786-4.451,9.321-7.153,9.054a5.87,5.87,0,0,1-3.862-2.808C82.627,89,83.3,86.448,82.613,86.278L82.2,88.791v-.06c-1.151,5.786-4.861,9.316-7.816,9.049a6.384,6.384,0,0,1-4.216-2.808c-1.565-2.3-1.031-4.792-1.625-5.165a.222.222,0,0,0-.074-.037.073.073,0,0,0-.037.014c-.539.387-.967,1.478-1.924,2.173C56.2,97.744,52.041,101.739,49.265,105c-7.1,8.35-6.186,20.64-6.053,22.219.985,11.342,8.3,24.589,21.367,28.221,1.224.341,14.8,3.848,25.238-6.1,9.965-9.5,8.511-23.079,8.308-24.736a30.125,30.125,0,0,0-5.339-13.666,31.72,31.72,0,0,1,1.629,13.593c-.318,3.144-1.312,12.893-9.312,18.817-7.3,5.4-15.466,3.945-17.128,3.6-12.092-2.472-17.091-14.375-17.841-16.239a24.713,24.713,0,0,1-.727-13.979,26.552,26.552,0,0,1,7.213-13.362c2.8-3.024,6.858-5.008,8.939-6.076l.253.525c1.238,2.679,2.278,4.179,4.99,5.5,2.545,1.238,5.975,1.381,7.521.267,1.381-.99,2.058-2.909,2.812-5.634.083-.295.156-.585.226-.875,3.894,3.2,7.94,4.529,10.246,2.955a3.689,3.689,0,0,0,.907-.907,8.447,8.447,0,0,0,4.713-.074c4.842-2.872,6.426-9.247,7.167-11.448,1.142-3.406,1.781-7.158,2.26-7.033s-.331,3.77,1.049,5.786c.971,1.422,2.716,1.6,4.336,1.1.069-.018.134-.041.2-.064.451-.23.957-.479,1.505-.746,4.175-2.053,10.67-5.312,13.063-10.633,3.02-6.716,2.421-13.482-.6-22.393Zm-13.988,33.62a.564.564,0,0,1-.189.06,1.753,1.753,0,0,0,.2-.069A.066.066,0,0,0,112.229,87.212Z" transform="translate(-34.1 6)" fill="url(#linear-gradient-4)"/>
    </g>
  </g>
</svg>
