<svg id="mastercard-2" xmlns="http://www.w3.org/2000/svg" width="44.952" height="34.972" viewBox="0 0 44.952 34.972">
  <path id="Path_759" data-name="Path 759" d="M145.293,1321.995v.09h.084a.089.089,0,0,0,.045-.011.04.04,0,0,0,.017-.035.039.039,0,0,0-.017-.033.081.081,0,0,0-.045-.011h-.084Zm.085-.064a.155.155,0,0,1,.1.029.1.1,0,0,1,.035.08.091.091,0,0,1-.028.07.139.139,0,0,1-.08.034l.112.128h-.087l-.1-.127h-.033v.127h-.072v-.34h.157Zm-.022.458a.265.265,0,0,0,.11-.023.287.287,0,0,0,.151-.151.285.285,0,0,0-.151-.373.285.285,0,0,0-.11-.021.3.3,0,0,0-.112.021.287.287,0,0,0-.092.061.29.29,0,0,0-.06.315.265.265,0,0,0,.06.09.285.285,0,0,0,.092.061.28.28,0,0,0,.112.022m0-.652a.377.377,0,0,1,.264.108.363.363,0,0,1,.08.4.382.382,0,0,1-.08.117.4.4,0,0,1-.118.078.364.364,0,0,1-.146.029.371.371,0,0,1-.147-.029.386.386,0,0,1-.119-.078.381.381,0,0,1-.078-.121.365.365,0,0,1,.2-.48.371.371,0,0,1,.147-.029m-34.412-1.309a1.117,1.117,0,1,1,1.119,1.181,1.107,1.107,0,0,1-1.119-1.181m2.986,0v-1.845h-.8v.45a1.4,1.4,0,0,0-1.165-.541,1.939,1.939,0,0,0,0,3.874,1.4,1.4,0,0,0,1.165-.541v.448h.8v-1.845Zm27.1,0a1.117,1.117,0,1,1,1.119,1.181,1.107,1.107,0,0,1-1.119-1.181m2.987,0V1317.1h-.8v1.931a1.4,1.4,0,0,0-1.165-.541,1.939,1.939,0,0,0,0,3.874,1.4,1.4,0,0,0,1.165-.541v.448h.8Zm-20.133-1.219a.916.916,0,0,1,.934.895h-1.914a.95.95,0,0,1,.98-.895m.016-.719a1.939,1.939,0,0,0,.054,3.874,2.241,2.241,0,0,0,1.512-.517l-.393-.594a1.758,1.758,0,0,1-1.073.386,1.025,1.025,0,0,1-1.1-.9h2.739c.008-.1.016-.2.016-.308a1.77,1.77,0,0,0-1.752-1.937m9.684,1.937a1.117,1.117,0,1,1,1.119,1.181,1.107,1.107,0,0,1-1.119-1.181m2.986,0v-1.844h-.8v.45a1.4,1.4,0,0,0-1.165-.541,1.939,1.939,0,0,0,0,3.874,1.4,1.4,0,0,0,1.165-.541v.448h.8v-1.845Zm-7.516,0a1.863,1.863,0,0,0,1.968,1.937,1.928,1.928,0,0,0,1.326-.44l-.385-.648a1.621,1.621,0,0,1-.966.332,1.183,1.183,0,0,1,0-2.362,1.625,1.625,0,0,1,.966.332l.385-.648a1.93,1.93,0,0,0-1.326-.44,1.863,1.863,0,0,0-1.968,1.937m10.34-1.937a1.088,1.088,0,0,0-.972.541v-.447h-.795v3.688h.8V1320.2c0-.61.262-.949.787-.949a1.3,1.3,0,0,1,.5.093l.247-.756a1.7,1.7,0,0,0-.571-.1m-21.5.386a2.758,2.758,0,0,0-1.5-.386c-.934,0-1.536.448-1.536,1.181,0,.6.448.972,1.273,1.088l.379.054c.44.062.647.178.647.386,0,.285-.292.448-.841.448a1.966,1.966,0,0,1-1.227-.386l-.377.625a2.661,2.661,0,0,0,1.6.479c1.065,0,1.683-.5,1.683-1.2,0-.648-.486-.987-1.289-1.1l-.378-.055c-.347-.045-.625-.115-.625-.362,0-.27.262-.432.7-.432a2.381,2.381,0,0,1,1.15.316l.347-.649Zm10.349-.385a1.086,1.086,0,0,0-.972.541v-.449h-.795v3.688h.8V1320.2c0-.61.262-.949.787-.949a1.3,1.3,0,0,1,.5.093l.247-.756a1.7,1.7,0,0,0-.572-.1m-6.844.093H120.09v-1.119h-.811v1.119h-.748v.733h.748V1321c0,.856.332,1.365,1.281,1.365a1.884,1.884,0,0,0,1-.285l-.232-.687a1.484,1.484,0,0,1-.71.208c-.4,0-.532-.247-.532-.617v-1.667H121.4Zm-11.991,3.689v-2.314a1.374,1.374,0,0,0-1.451-1.466,1.428,1.428,0,0,0-1.3.656,1.354,1.354,0,0,0-1.219-.656,1.22,1.22,0,0,0-1.08.548v-.456h-.8v3.688h.809v-2.045a.863.863,0,0,1,.9-.981c.533,0,.8.347.8.972v2.053h.811v-2.045a.87.87,0,0,1,.9-.98c.548,0,.809.347.809.972v2.053Z" transform="translate(-101.233 -1287.5)" fill="#231f20"/>
  <path id="Path_760" data-name="Path 760" d="M1930.02,977.759v-.539h-.14l-.163.37-.161-.37h-.141v.539h.1v-.406l.152.35h.1l.152-.351v.407h.1Zm-.891,0v-.447h.18v-.091h-.459v.091h.18v.447h.1Z" transform="translate(-1885.502 -955.259)" fill="#f79410"/>
  <path id="Path_761" data-name="Path 761" d="M741.865,153.994H729.71V132.15h12.155Z" transform="translate(-713.311 -129.18)" fill="#ff5f00"/>
  <path id="Path_762" data-name="Path 762" d="M17.17,13.892A13.869,13.869,0,0,1,22.475,2.97a13.892,13.892,0,1,0,0,21.844A13.869,13.869,0,0,1,17.17,13.892" transform="translate(0 0.001)" fill="#eb001b"/>
  <path id="Path_763" data-name="Path 763" d="M1022.586,13.892a13.892,13.892,0,0,1-22.476,10.922,13.894,13.894,0,0,0,0-21.844,13.891,13.891,0,0,1,22.476,10.922" transform="translate(-977.634 0.001)" fill="#f79e1b"/>
</svg>
