<svg xmlns="http://www.w3.org/2000/svg" width="287.013" height="189" viewBox="0 0 287.013 189">
  <g id="Layer_x0020_1" transform="translate(-0.005 -0.004)">
    <g id="_3095830860672" transform="translate(0.005 0.004)">
      <path id="Path_3368" data-name="Path 3368" d="M1389.732.791c-4.188,1.717-8.971,7.639-11.872,10.615-3.036,3.113-3.492,2.294-9.142,2.256l-34.419-.005c-7.919-.016-13.792.516-15.309,7.766s-.237,35.553-.227,44.978c.006,6-3.129,7.284-9.414,13.464-6.034,5.933-4.633,7.855-4.632,18.209v68.154c0,26.947-.882,22.5,46.453,22.5h114.04c22.216.038,16.478-7.731,16.478-52.195,0-15.29.107-30.615.024-45.9-.046-8.4-4.278-10.649-8.091-14.463-7.107-7.109-5.92-3.95-5.919-17.238q0-11.472,0-22.943c0-26.789.473-22.345-46.353-22.335-12.838,0-9.71.545-16.563-6.316-3.059-3.063-7.644-9.589-15.052-6.551Z" transform="translate(-1249.74 -0.004)" fill="#00354e" fill-rule="evenodd"/>
      <path id="Path_3369" data-name="Path 3369" d="M1745.922,439.5c0,23.2-.5,51.862.093,74.4,7.287,3.23,45.713,28.825,50.7,30.406,4.183-2.308,14.454-9.739,18.9-9.852,5.426-.139,14.42,7.652,19.559,9.852,1.229.026,47.905-29.122,50.452-30.557.783-20.187.114-53.361.111-74.926,0-8.082-5.053-6.97-12.1-6.953h-115.39C1750.409,431.866,1745.922,430.423,1745.922,439.5Z" transform="translate(-1672.348 -413.638)" fill="#fff" fill-rule="evenodd"/>
      <path id="Path_3370" data-name="Path 3370" d="M1498.73,2989.17c-11.722,6.255-23.519,14.134-34.984,21.209l-43.9,26.93c-2.994,2.366-3.258,7.432.686,9,3.255,1.292,127.44.541,140.79.541,6.952,0,23.054,2.655,23.961-4.571.513-4.089-3.462-5.848-6.174-7.461l-70.264-43.083c-3.149-2-6.021-4.749-10.12-2.562Z" transform="translate(-1358.004 -2862.757)" fill="#fff" fill-rule="evenodd"/>
      <path id="Path_3371" data-name="Path 3371" d="M2770.764,973.287c-38.52,5.445-28.781,62.535,8.494,56.028,13.819-2.412,25.822-15.492,23.181-32.36-2.147-13.716-15.041-26.02-31.675-23.669Z" transform="translate(-2630.752 -932.099)" fill="#1aa5b8" fill-rule="evenodd"/>
      <path id="Path_3372" data-name="Path 3372" d="M3992.5,2348.664c4.931,3.671,57.7,35.86,59.488,36.154l.076-72.808C4047.861,2313.678,3993.646,2347.218,3992.5,2348.664Z" transform="translate(-3824.685 -2214.83)" fill="#fff" fill-rule="evenodd"/>
      <path id="Path_3373" data-name="Path 3373" d="M1416.53,2384.659l59.471-36.33c-.091-.132-.262-.48-.312-.368l-2.663-2.079c-8.272-5.118-53.448-33.2-56.453-34.221Z" transform="translate(-1356.99 -2214.495)" fill="#fff" fill-rule="evenodd"/>
      <path id="Path_3374" data-name="Path 3374" d="M3004.815,1350.651c-2.367-1.674-6.166-6.812-8.772-7.955l-3.3,3.248c1.9,2.287,10.542,11.4,12.75,12.154,3.266-2.838,21.713-20.977,22.816-23.543l-3.116-2.887c-3.73,1.87-16.821,17.742-20.375,18.982Z" transform="translate(-2866.947 -1275.696)" fill="#fff" fill-rule="evenodd"/>
      <path id="Path_3375" data-name="Path 3375" d="M6075.36,2049.57c3.148,1.707,21.188.845,25.534.856,2.1.01,7.543.379,5.722-3.123-1.379-2.651-20.117-1.381-23.288-1.381-4.923,0-8.34-1.458-7.968,3.648Z" transform="translate(-5819.969 -1959.635)" fill="#1aa5b8" fill-rule="evenodd"/>
      <path id="Path_3376" data-name="Path 3376" d="M5928.559,2553.677c.935-4.269-1.81-4.383-5.033-6.277-5.143-3.024-20.2-13.347-22.132-10.06-1.713,2.919,7.208,6.84,12.343,9.773,2.39,1.364,5.126,2.888,7.324,4.174,2.829,1.657,4.4,3.5,7.5,2.389Z" transform="translate(-5653.136 -2430.077)" fill="#1aa5b8" fill-rule="evenodd"/>
      <path id="Path_3377" data-name="Path 3377" d="M5928.613,1267.35c-3.75-1.309-8.866,3.128-15.07,6.567-4.945,2.741-14.1,6.84-12.212,9.85,1.787,2.851,10.565-3.492,14.726-5.948,2.866-1.692,4.678-2.723,7.265-4.21C5926.594,1271.727,5929.16,1271.539,5928.613,1267.35Z" transform="translate(-5653.04 -1213.855)" fill="#1aa5b8" fill-rule="evenodd"/>
      <path id="Path_3378" data-name="Path 3378" d="M268.571,1263.893c-3.275,2.407,1.026,4.279,3.237,5.507,4.494,2.5,20.4,12.889,22.6,11.6,4.638-2.71-6.478-7.647-10.7-10.056-2.712-1.549-4.557-2.57-7.28-4.123-2.01-1.146-5.857-4.4-7.866-2.928Z" transform="translate(-256.145 -1210.406)" fill="#1aa5b8" fill-rule="evenodd"/>
      <path id="Path_3379" data-name="Path 3379" d="M6.289,2052.292c3.627,0,22.286.826,25.5-.878l.215-2.674c-3.56-1.859-22-.951-27.066-.951C-1.331,2047.788-2.4,2052.292,6.289,2052.292Z" transform="translate(-0.005 -1961.502)" fill="#1aa5b8" fill-rule="evenodd"/>
      <path id="Path_3380" data-name="Path 3380" d="M276.269,2543.5c3.06,1.1,5.022-.988,7.521-2.4l14.548-8.4c1.5-.828,6.936-2.5,5.134-5.572-1.636-2.789-5.8.711-7.615,1.75l-14.565,8.383c-3.37,1.953-5.932,1.995-5.024,6.237Z" transform="translate(-264.479 -2419.893)" fill="#1aa5b8" fill-rule="evenodd"/>
      <path id="Path_3381" data-name="Path 3381" d="M3158.03,120.276l21.324.153c-1.146-2.342-7.445-9.075-10.781-8.975-2.963.088-9.47,6.547-10.543,8.823Z" transform="translate(-3025.29 -106.766)" fill="#fff" fill-rule="evenodd"/>
      <path id="Path_3382" data-name="Path 3382" d="M1428.167,1867.045l.047-18.995c-2.236.8-8.836,7.285-9.288,9.785-.845,4.674,5.726,8.327,9.241,9.21Z" transform="translate(-1359.214 -1770.372)" fill="#fff" fill-rule="evenodd"/>
      <path id="Path_3383" data-name="Path 3383" d="M5185.885,1864.8a25.78,25.78,0,0,0,5.829-3.138c9.419-5.9-4.045-15.052-5.834-16.006Z" transform="translate(-4967.903 -1768.082)" fill="#fff" fill-rule="evenodd"/>
    </g>
  </g>
</svg>
