<svg xmlns="http://www.w3.org/2000/svg" xmlns:xlink="http://www.w3.org/1999/xlink" width="256.037" height="221" viewBox="0 0 256.037 221">
  <defs>
    <linearGradient id="linear-gradient" x1="0.5" x2="0.5" y2="1" gradientUnits="objectBoundingBox">
      <stop offset="0" stop-color="#2d2b8e"/>
      <stop offset="1" stop-color="#5a58d2"/>
    </linearGradient>
  </defs>
  <g id="Group_2799" data-name="Group 2799" transform="translate(-587 -674)">
    <g id="Group_2797" data-name="Group 2797" transform="translate(587 674)">
      <g id="Group_37536" data-name="Group 37536" transform="translate(0 0)">
        <path id="Union_3" data-name="Union 3" d="M120.222,181.62H12.116c-4.1,0-5.412.635-6.158-1.12a15.677,15.677,0,0,1,5.641-.344,19.772,19.772,0,0,0,5.338-.2h0l.284-1.335c2.779-.171,5.114-.536,7.116,1.314-.658.674.546.743-1.042.743,1.589,0,.384-.069,1.043-.743l3.411.068a2.668,2.668,0,0,1,.262.449,2.658,2.658,0,0,0-.263-.45l-.094-1.232h0c-.14-1.491-1.656-1.783-4.514-4.711l-2.037-1.57L25.069,139v0l-3.966,33.5-.425,3.472h0c-.32,1.062.255.753-1.494.936a10.9,10.9,0,0,1-1.973-.218l-.331-4.423H17.4l-.034,4.126c.36,0,.648.011.893.02-.245-.009-.532-.019-.893-.02l.034-4.126h-.525c-1.207-3.98,1.478-3.135-1.759-7.585a85.9,85.9,0,0,1-9.922-19.9A84.348,84.348,0,0,1,1.574,128.6C1.216,125.4.8,113.575,3.088,110.39h0l-.074-.7h0l0,0c1.074-5.829,4.57-10.507,7.611-13.9a34.97,34.97,0,0,1,5.6-5.176c1.392-1.025,5.929-3.708,6.635-4.736h0c.089-5.936-4.392-7.9.4-10.6,3.039-1.71,1.029.408,4.663-2.8,1.606-1.417,3.7-2.021,4.979.327a4.3,4.3,0,0,1-.211.757A4.3,4.3,0,0,0,32.9,72.8c1.067,1.9.519.654,1.724,1.962.79.859.61,1.14,1.8,1.928a27.526,27.526,0,0,0,5.009,2.424c2.439,1.856,6.29,3.074,8.4,5.315A9.071,9.071,0,0,1,48.281,86.8a9.076,9.076,0,0,0,1.548-2.37c-2.106-2.242-5.957-3.459-8.4-5.315h0l.6-.313.543-.238.075-.029,9.744-2.71c8.114-2.36,13.182-3.66,20.927-7.232,3.507-1.617,6.083-3.659,9.05-5.1V51.3c-.011.207-.026.406-.044.6-11.762-.026-27.049-18.079-19.458-30.207,4.492-7.179,12.306-2.546,17.89,1.134a48.106,48.106,0,0,1,7.426,5.832,61.336,61.336,0,0,1,5.749,7.123c-.421.023-.83.04-1.228.052h10.563c.825-3.054,7.266-13.3,9.149-15.949,28.345-39.818,85.871-14.527,102.328,29.278l-.022-.009a24.871,24.871,0,0,1,3.125,4.332,15.965,15.965,0,0,1,1.775,6.228,25.758,25.758,0,0,1-.448,8.052,34.166,34.166,0,0,1-1.669,4.189c-.78,1.534-1.776,2.313-2.044,3.776h0c.268-1.462,1.264-2.241,2.044-3.775a33.935,33.935,0,0,0,1.669-4.188c1.885,2.468.642,8.756.873,12.227l-.124-.091c6.113,5.582,16.254,14.693,16.624,15.358,1.3,2.337-1.013,4.294-3.251,4.51-2.179-1.022-6.637-6.671-8.478-8.447a33.748,33.748,0,0,0-4.712-4.6c-2.383-2.986-4.993-5.3-7.352-8.132-2,.572-4.165,2.67-7.27,3.718a23.1,23.1,0,0,1-9.408.868h0a23.092,23.092,0,0,0,9.407-.868c3.1-1.049,5.267-3.146,7.27-3.719,2.358,2.834,4.968,5.146,7.351,8.132l-.088,43.988.009,7,16.456-18.2c1.837-1.771,4.22-4.5,8.35-3.616,10.275,2.21,8.418,16.715,6.717,24.922-.661,3.2-2.085,6.409-2.369,9.328h0c-.3,5.357-.159,9.253-.936,14.661-.334,2.321-.69,4.614-1.03,6.815-.187,1.212-.373,1.9-.6,3.093l-.548,2.41c-.385.972.047.251-.468.867a123,123,0,0,1-.491-13.148,122.647,122.647,0,0,0,.491,13.149c.013.1.125,1.16.14,1.206a2.493,2.493,0,0,1,.122.474,1.18,1.18,0,0,1,.276.155l.354.027,8.462.283c-.418,1.074.855,1.467-3.421,1.383-1.523-.031-3.043-.021-4.567-.021-3.932,0-7.51.71-8.2-1.029,1.48-.778,3.652-.309,5.724-.616l-.03-.175v0l-2.245-12.944c.427-.323.58-.346.625-.34-.044-.006-.2.016-.626.34l2.244,12.941a66.418,66.418,0,0,0-3.591-6.319,69.82,69.82,0,0,1-3.691-6.969c-2.135.25-4.984,1.97-7.644,2.523-3.33.693-6.107.392-9.514.346l.008,4.522h0c-.289,4.156-2.819,4.5-5.081,6.348l-138.727-.012-.514-.138h0L51.195,180h0l24.513-.022.514.138-41.061.265h0a8.891,8.891,0,0,1-3.012.305c-.3-.005-.626-.011-.981-.007s-1.851.039-2.08,0a2.989,2.989,0,0,0-.928-.07c-.072.011-.086.021-.1,0,.011.025.023.014.1,0a2.979,2.979,0,0,1,.928.07c.229.041,1.738.006,2.08,0s.678,0,.981.007a8.891,8.891,0,0,0,3.012-.305l41.061-.265,138.727.012h0l15.452.022c2.009-.109,3.753-.667,4.444.785-.917.706-25.58.886-51.89.886C155.275,181.82,125.773,181.62,120.222,181.62ZM20.4,180.681h0l1.072,0h0l-1.072,0Zm-2.4-.052a2.712,2.712,0,0,0-.76-.048.479.479,0,0,1-.054.009.32.32,0,0,0,.054-.009,1.051,1.051,0,0,1,.157-.01,4.094,4.094,0,0,1,.6.058Zm17.159-.582h0l14.4-.118h0l-14.394.118c-1.184-1.26-2.618-1.426-4.4-1.668l.523-1.174a10.658,10.658,0,0,0-2.372,0,10.739,10.739,0,0,1,2.371,0l-.523,1.174c1.785.243,3.218.407,4.4,1.667Zm15.628-18.7-.389,3.567c-.1,1.565-.175,3.65-.158,5.253.021,1.969-.256,8.839.952,9.833h0c-1.207-1-.93-7.865-.95-9.833-.017-1.6.053-3.689.158-5.253l.389-3.567c-.014-.623-.059-.347-.152-.543h0c.092.193.136-.08.151.541ZM244.5,179.9h0c.728-.1,1.022-.122,1.093-.422-.071.3-.366.322-1.093.421h0Zm-193.259-.52c.077-.123.168-.267.271-.43-.1.163-.195.307-.271.43Zm-3.074-8.818c.448,2.556,1.391,5.542,1.392,8.184,0-2.642-.944-5.628-1.392-8.184h0a3.369,3.369,0,0,0,.315-1.654,3.375,3.375,0,0,1-.315,1.653c-.624-2.973-2.427-8.249-5.513-7.6h0a2.5,2.5,0,0,1,.512-.054c2.775,0,4.412,4.855,5,7.66Zm-19.95,7.451-.054-.006.053.007Zm-.042-1.435Zm-9.9-.175h-.007Zm13.428-6.26c-.244,4.431.017,5.829-.765,6.259.782-.43.522-1.827.766-6.259l2.361-45.824.037-.929.823-.32c-.233-1.919-.763-3.183-.934-5.082a165.709,165.709,0,0,1,.564-18.242c2.445-1.626,8.167-4.618,9.515-6.213l-.714-2.222h0c-.582-1.489-.692-3.551-2.061-4.662,1.368,1.111,1.479,3.174,2.06,4.661l.714,2.222C42.724,95.131,37,98.124,34.558,99.75a165.707,165.707,0,0,0-.564,18.242c.171,1.9.7,3.163.934,5.082l-.823.32-.037.929Zm20.561,2.888h0a2.956,2.956,0,0,1-.328-1.106,2.954,2.954,0,0,0,.327,1.107Zm192.7-2.752c0-1.16.011-2.32.011-3.494C244.976,167.963,244.964,169.124,244.964,170.283Zm-187.8-1.47v0Zm.566-3.1a5.528,5.528,0,0,1-.555,3.075,5.535,5.535,0,0,0,.555-3.076c-.429-.315.87-.9-1.474-.307-1.012.255-1.93,1.723-2.638,3.361.707-1.638,1.625-3.105,2.637-3.36a6.878,6.878,0,0,1,1.292-.254c.411,0-.113.344.182.561Zm184.477.882a11.364,11.364,0,0,0-.938-3.67,11.372,11.372,0,0,1,.938,3.67Zm.647-.193c-.016-.016-.089-.136.032-.768a11.15,11.15,0,0,0-.083-1.682,20.413,20.413,0,0,1-.158-2.68h0c-.351-4.239,0-11.039,3.246-12.845-3.248,1.8-3.6,8.606-3.247,12.845h0a20.508,20.508,0,0,0,.158,2.68,11.15,11.15,0,0,1,.083,1.682c-.12.626-.05.75-.033.768Zm-5.677-.012c-.458-1.164-1.541-2.989-2.318-4.883.777,1.894,1.859,3.719,2.317,4.883Zm-188.787-3.54a18.5,18.5,0,0,0-.1,1.971,18.5,18.5,0,0,1,.1-1.97c.305-2.858.9-5.1,3.487-5.523a5.45,5.45,0,0,1,1.282,3.509,5.455,5.455,0,0,0-1.282-3.51C49.292,157.744,48.7,159.989,48.392,162.846Zm196.725,1.6Zm0-.071c.011-.322.03-.739.055-1.222-.026.483-.044.9-.056,1.222ZM42.555,163.239a2.007,2.007,0,0,1,.07-.211A1.912,1.912,0,0,0,42.555,163.239ZM245.389,154.5a11.3,11.3,0,0,1,.406-1.621c0,.012,0,.138-.012.356.012-.218.016-.345.013-.357a11.29,11.29,0,0,0-.406,1.623ZM220.027,137.711ZM33.492,124.647c-3.246,1.587-11.21,2.344-15.166,1.922C22.282,126.991,30.246,126.233,33.492,124.647Zm-15.166,1.922v-3.156a23.818,23.818,0,0,0,7.1,1.11,23.823,23.823,0,0,1-7.1-1.11l-.758.042-.349-1.363.04-1.862c1.358-.905,1.271-.281,2.269-1.426a2.5,2.5,0,0,0-.268-.195,2.523,2.523,0,0,1,.268.195c-1,1.145-.911.521-2.269,1.426l-.04,1.861h0l.35,1.363.758-.042Zm15.168-1.923.012-.006Zm.017-.008.143-.072-.142.072Zm.269-.141.024-.014Zm.215-.127.072-.046-.072.047ZM18.7,118.435c.078.035.144.062.2.083-.055-.021-.12-.048-.2-.083l-1.1-1.6h0Zm-5.824-11.309a8.541,8.541,0,0,0-4.222,3.394,36.762,36.762,0,0,0,4.064,3.952c1.686,1.437,2.334,1.518,3.836,3.612h0c-1.5-2.093-2.15-2.175-3.836-3.611a36.789,36.789,0,0,1-4.064-3.952,8.552,8.552,0,0,1,4.222-3.394c-.069-.083-.173-.3-.224-.285h0C12.709,106.841,12.809,107.046,12.877,107.126Zm.444.529c-.035,0-.084-.118-.333-.405.249.288.3.406.333.406Zm-.334-.406-.024-.027Zm-.03-.034-.072-.08.072.08Zm1.024-.154.031-.018Zm-3.487-2.37,2.143,2.163h0L10.5,104.691c-.9-.958-1.047-1.537-2.277-2.283h0C9.449,103.155,9.594,103.733,10.495,104.691ZM18.2,104.043Zm43.5-10.892c2.02-.507,4.508-.358,7.676-.31h0c-1.324-.02-2.529-.058-3.631-.058a16.781,16.781,0,0,0-4.045.368Zm20.852-.328h0l102.823-.012H82.544ZM31.94,82c-.289,5.935-2.61,2.066-2.639,7.436.03-5.37,2.35-1.5,2.639-7.436a14.146,14.146,0,0,0,2.251-.743,9.606,9.606,0,0,0,.918-.328c1.094-.523.622-.307,1.092-.738,1.694,1.016,6.123,3.821,7.223,4.986-1.1-1.165-5.529-3.97-7.223-4.986-1.86-1.448-1.508-1.29-4.4-1.7ZM23.772,87.18c1.645-.2,2.739-1.535,3.581-2.844a20.758,20.758,0,0,0,1.053-2.311,8.858,8.858,0,0,1,.614-1.08,8.478,8.478,0,0,0-.615,1.08,20.958,20.958,0,0,1-1.053,2.311c-.842,1.308-1.935,2.642-3.581,2.844Zm17.215-.748c.225-.091.473-.188.728-.294C41.46,86.244,41.212,86.341,40.987,86.432Zm33.751-7.293c-2.3.128-3.965,1.969-4.8,4.007.832-2.038,2.5-3.878,4.8-4.006l1.165-.4,6.47.142v0L75.9,78.735ZM29.97,81.527c-.435-3.436-1.056-3.039,1.172-5.385l-.725-.9c-.428-.821-.341-.388-.381-1.481.1-.019.257-.037.437-.054-.18.017-.339.035-.438.054.041,1.093-.047.66.381,1.481l.725.9c-2.228,2.346-1.607,1.949-1.172,5.385a1.575,1.575,0,0,1-.407.063A1.573,1.573,0,0,0,29.97,81.527Zm168.373-1.081a21.968,21.968,0,0,1-2.265-.165h0a21.935,21.935,0,0,0,2.265.165ZM31.451,76.556c.268.181.265.306.174.386.1-.018.235-.038.394-.06a1.872,1.872,0,0,1,.467-.027c0-.043.043-.142.266-.349a4.034,4.034,0,0,0-1.267-.607C31.219,75.9,31.67,76.432,31.451,76.556Zm.161-2.935-.019,0,.02,0c.078-.02.15-.035.216-.047-.067.012-.139.028-.217.047Zm164.466-7.9,0-.669,20.648.032c.733-6.7-1.55-12.412-5.7-16.12,4.146,3.708,6.429,9.422,5.7,16.119l-20.648-.032h0Zm13.478-13.307a5.888,5.888,0,0,1-4.284-3.134,5.885,5.885,0,0,0,4.283,3.133Zm0,0Zm.013,0ZM208.07,50c1.087.764,1.537.7,1.538,1.86C209.607,50.694,209.157,50.759,208.07,50Zm-.031-.022,0,0Zm-.127-.092-.023-.017Zm-.029-.021c-.942-.7-1.779-1.526-2.61-.583a1.064,1.064,0,0,1,.807-.423c.572,0,1.164.533,1.8,1.005ZM82.372,48.235V42.557A55.84,55.84,0,0,0,82.372,48.235ZM203.119,47.4c.91.409,1.159.442,1.209.5-.049-.058-.3-.089-1.21-.5-1.624-.73-5.367-.528-6.893-.462h0c.621-.027,1.607-.076,2.669-.076a12,12,0,0,1,4.226.539ZM188.838,35.829q-.328-.014-.678-.016l-48.722.016Zm57.3,143.995c.579-5,4.089-23.259,9.493-20.424,2.631,2.448-8.393,18.027-9.139,20.451ZM42.45,78.57c.373-.151.776-.3.125-.012-.369.139-.514.189-.53.189A3.624,3.624,0,0,1,42.45,78.57ZM14.6,71.395ZM12.663,69.1a4.574,4.574,0,0,1,2.352-1.949,4.752,4.752,0,0,1,1.935,2.363A10.791,10.791,0,0,1,14.6,71.395,5.388,5.388,0,0,1,12.663,69.1ZM8.624,60.592c-.472-2.54-2.119-6.511-4.793-4.734-1.316,2.136.662,2.733,1.564,4.529L3,62.132c-9.325-7.752,5.809-16.09,8.367-3.911.95,4.524-.18,4.066,2.351,7.565A16.663,16.663,0,0,1,11.647,67.7C8.72,65.515,9.379,64.652,8.624,60.592ZM21.309,62.14l4.561-.833a11.867,11.867,0,0,1,.665,4.725l-4.469.717Zm1.4-14.344c1.139-4.283-.124-11.217-4.606-7.118-.483,2.209.166,3.59.5,5.837l-4.67.513h0c-.773-4.76-1.427-8.1,1.928-10.637,6.466-4.9,15.066,2.018,11.343,12.159-1.534,4.179-3.237,5.153-1.932,10.57l-4.281.7c-2.2-5.77.532-7.56,1.719-12.023ZM95.775,13.511c-.838-3.221-1.62-5.2,1.1-7.5,5.263-4.45,11.789,3.214,7.469,7.881-2.161,2.335-4.445,1.648-7.588.792l-2.616,2.607a2.608,2.608,0,0,1-.813.189C91.977,17.481,95.027,14.319,95.775,13.511Zm.887-2.486c.823,4.293,8.179,3.869,7.322-1.614a3.331,3.331,0,0,0-3.48-2.88,3.7,3.7,0,0,0-3.842,4.495Z" transform="translate(0.001 -0.001)" fill="#00354e"/>
        <g id="Layer_x0020_1" transform="translate(0 0)">
          <g id="_1807787670112" transform="translate(0 0)">
            <path id="Path_29829" data-name="Path 29829" d="M1490.461,649.82H1592a6.143,6.143,0,0,1,6.125,6.125V706.8H1484.42V655.863a6.059,6.059,0,0,1,6.042-6.042Z" transform="translate(-1402.048 -613.991)" fill="#00354e" fill-rule="evenodd"/>
            <path id="Path_29830" data-name="Path 29830" d="M1036.115,1763.361l.514.137,138.727.012c2.262-1.849,4.792-2.192,5.081-6.348-.926-1.885-3.474-18.7-4.125-22.283l-7.9-44.658c-1.786-9.765-.919-13.926-11.931-14.028l-113.534.013-.458.007-12.718.011c-5.821-.088-9.341-.517-11.893,3.407-2.123,3.265-.483,8.786.208,12.611l9.009,50.668c.693,4.333,1.526,8.45,2.181,12.708.711,4.626,2.719,6.273,6.833,7.743Z" transform="translate(-960.409 -1583.383)" fill="#00354e" fill-rule="evenodd"/>
            <path id="Path_29831" data-name="Path 29831" d="M400.641,1163.547c2.439,1.856,6.29,3.073,8.4,5.316-.713,2-5,6.153-6.471,6.891l.714,2.222c-1.348,1.594-7.069,4.587-9.515,6.213a165.707,165.707,0,0,0-.564,18.242c.172,1.9.7,3.162.934,5.082l-.823.32-.037.93-2.361,45.824c-.387,7.033.495,6.424-3.532,6.435-.4-5.925-1.639-34.651-3.106-37.584l-3.965,33.5,2.037,1.57c2.859,2.927,4.374,3.22,4.514,4.711,1.445-.133.983.059,1.711-.5-2.068-.558-.771.065-1.082-.658.535-.755,1.778-.417,3-.414l-.523,1.174c1.786.242,3.219.407,4.4,1.667l14.4-.118-.033-.3c-1.089-2.589-7.237-12.124-7.177-15.263l.193-1.063a1.769,1.769,0,0,1,.117-.344c3.086-.644,4.889,4.632,5.513,7.6.773-1.376-.173-4.013.224-7.719.305-2.858.9-5.1,3.487-5.523,3.462,3.719-1.273,12.767.39,15.712.382-1.965,2-7.133,3.989-7.632,2.344-.589,1.045-.009,1.474.307.77,2.6-5.137,11.509-6.491,13.676l-.048.615,24.514-.022c-4.114-1.47-6.122-3.116-6.833-7.743-.654-4.258-1.488-8.376-2.181-12.708l-9.009-50.668c-.69-3.824-2.331-9.346-.207-12.611,2.551-3.923,6.072-3.5,11.893-3.407-.014-2.6-.367-6.94.379-9.173s2.5-4.389,4.989-4.527l1.165-.4,6.544.143-.047-15.409c-2.979,1.447-5.56,3.5-9.077,5.119-7.746,3.572-12.813,4.873-20.928,7.232l-9.744,2.71c-2.041.77,1.935-.84-.618.266l-.6.313Z" transform="translate(-359.206 -1084.437)" fill="#00354e" fill-rule="evenodd"/>
            <path id="Path_29832" data-name="Path 29832" d="M1952.859,42.57a23.736,23.736,0,0,1,11.58,1.3,21.234,21.234,0,0,1,4.282,2.353c1.547,1.145,2.052,3.127,3.691,3.788-16.457-43.8-73.984-69.1-102.329-29.278-1.885,2.648-8.341,12.921-9.152,15.96l84.9-.028c4.439.022,6.181,1.545,7.723,4.724a5.133,5.133,0,0,0-.234.475l-.455.7Z" transform="translate(-1757.664 -0.857)" fill="#00354e" fill-rule="evenodd"/>
            <path id="Path_29833" data-name="Path 29833" d="M3964.967,2111.461l-.007,31.546c3.407.046,6.184.347,9.514-.345,2.661-.553,5.51-2.273,7.644-2.523-.936-2.382-4.49-7.53-2.683-10.379,3.251-1.515,5.5,3.671,6.54,6.17.107-.086.411-.314.5-.363a7.775,7.775,0,0,1,1.113-.547c-.407-4.91.128-13.259,5.017-13.3.681.769.873,1.43,1.518,2.168.284-2.919,1.708-6.133,2.369-9.329,1.7-8.207,3.558-22.711-6.717-24.922-4.13-.888-6.512,1.844-8.35,3.616l-16.457,18.2Z" transform="translate(-3744.939 -1973.751)" fill="#00354e" fill-rule="evenodd"/>
            <path id="Path_29834" data-name="Path 29834" d="M3533.439,1425.005l0,9.635c11.011.1,10.144,4.263,11.931,14.028l7.9,44.658c.65,3.587,3.2,20.4,4.125,22.283l-.009-4.523.007-31.546-.009-7,.088-43.988c-2.383-2.986-4.993-5.3-7.352-8.132-2,.573-4.165,2.67-7.27,3.719a23.091,23.091,0,0,1-9.411.868Z" transform="translate(-3337.363 -1341.829)" fill="#00354e" fill-rule="evenodd"/>
            <path id="Path_29835" data-name="Path 29835" d="M156.851,1564.723l-6.022.863c-6.824.305-5.667.137-9.1,4.066l-6.682,6.66.725,1.384c1.231.746,1.376,1.325,2.277,2.283l2.143,2.163c.041-.076.161.179.239.272.8.869.066.539,1.1-.065.868-.5,2.693-2.4,4.214-3.018l-.6,12.791,1.1,1.6c.748.333.31-.032.828.369-1,1.145-.911.521-2.27,1.426l-.04,1.862.349,1.362.758-.042c5.873,1.787,9.97,1.143,15.778-.019l.823-.32c-.233-1.919-.762-3.182-.934-5.082a165.673,165.673,0,0,1,.564-18.242c2.445-1.626,8.167-4.618,9.515-6.213l-.714-2.222c-.623-1.594-.706-3.847-2.372-4.884-4.72,1.44-6.166,2.315-11.685,3Z" transform="translate(-127.55 -1475.289)" fill="#00354e" fill-rule="evenodd"/>
            <path id="Path_29836" data-name="Path 29836" d="M1117.836,361.055c.349-3.537-.729-10.041.907-12.756,2.293-3.806,5.7-3.084,10.7-3.361a61.277,61.277,0,0,0-5.749-7.123,48.142,48.142,0,0,0-7.426-5.832c-5.583-3.68-13.4-8.313-17.89-1.134C1090.786,342.977,1106.074,361.029,1117.836,361.055Z" transform="translate(-1035.508 -309.161)" fill="#00354e" fill-rule="evenodd"/>
            <path id="Path_29837" data-name="Path 29837" d="M313.074,2277l-.034,4.126c1.673,0,1.777.214,3.307-.421l.425-3.471,3.966-33.5c1.467,2.934,2.709,31.66,3.106,37.585,4.028-.011,3.145.6,3.532-6.435l2.361-45.824c-2.758,1.805-11.526,2.7-15.741,2.245v-3.155l-.758.041Z" transform="translate(-295.669 -2104.738)" fill="#00354e" fill-rule="evenodd"/>
            <path id="Path_29838" data-name="Path 29838" d="M38.9,2055.331h.525l.164-48.806-.349-1.363c-1.336-1.012-2.153-2.045-3.59-3.147-1.255-.962-2.246-1.759-3.5-2.714-1.865-1.427-6.176-3.685-7.043-5.84-2.292,3.184-1.872,15.01-1.515,18.208a84.33,84.33,0,0,0,3.624,16.174,85.841,85.841,0,0,0,9.922,19.9C40.375,2052.2,37.689,2051.351,38.9,2055.331Z" transform="translate(-22.017 -1883.071)" fill="#00354e" fill-rule="evenodd"/>
            <path id="Path_29839" data-name="Path 29839" d="M3222.257,755.59c12.563-1.494,22.142,7.708,20.745,20.487-1.805,9.276-9.51,16.616-20.714,15.191-20.421-4.063-20.445-31.824-.029-35.678Zm-.792-2.88c-6.589,1.739-8.405,3.11-12.2,6.9-3.129,3.122-5.309,8.436-5.188,14.282a20.773,20.773,0,0,0,18.272,20.283,23.109,23.109,0,0,0,9.411-.868c3.1-1.049,5.267-3.146,7.27-3.719,2.358,2.834,4.968,5.146,7.351,8.132a33.73,33.73,0,0,1,4.712,4.6c1.841,1.776,6.3,7.424,8.478,8.447,2.238-.216,4.555-2.173,3.251-4.51-.511-.916-19.587-17.881-21.085-19.53.268-1.462,1.263-2.241,2.044-3.776a34.213,34.213,0,0,0,1.669-4.188,25.749,25.749,0,0,0,.448-8.052,15.967,15.967,0,0,0-1.774-6.228c-.926-2-5.247-6.967-6.794-8.112a21.269,21.269,0,0,0-4.282-2.353,23.728,23.728,0,0,0-11.579-1.3Z" transform="translate(-3026.272 -710.997)" fill="#00354e" fill-rule="evenodd"/>
            <path id="Path_29840" data-name="Path 29840" d="M3271.457,843.447l.066-15.224c.043-2.785.062-5.586.07-8.374l.015-6.227c.224-2.135-.08-.845.5-1.532,2.987-1.186,5.858,1.017,7.752-.11-.441-1.391.665-.527-1.294-1.408-1.624-.73-5.367-.529-6.894-.462l-.24-2.339c-20.416,3.854-20.392,31.616.029,35.678Z" transform="translate(-3075.442 -763.176)" fill="#00354e" fill-rule="evenodd"/>
            <path id="Path_29841" data-name="Path 29841" d="M316.367,3247.008,177.64,3247l-41.061.265a12.515,12.515,0,0,1-3.994.3c-.342,0-1.851.038-2.08,0-1.605-.287-.633.354-1.338-.67l-3.411-.068c-.889.911,1.619.718-3.94.741-.311,0-1.9.035-2.083,0-1.887-.353-.658.348-1.377-.722-3.453.809-7.951-.51-10.979.539.746,1.755,2.058,1.125,6.158,1.12H221.641c10.826,0,112.741.762,114.624-.686-.69-1.452-2.435-.894-4.444-.785l-15.453-.021Z" transform="translate(-101.419 -3066.88)" fill="#00354e" fill-rule="evenodd"/>
            <path id="Path_29842" data-name="Path 29842" d="M3545.415,812.86c-1.475.021-3.754-1.712-4.311-3.134.886-1,1.779,0,2.8.718C3545.137,811.314,3545.549,811.109,3545.415,812.86Zm-13.6-7.817.239,2.339c1.527-.066,5.271-.268,6.894.462,1.959.882.854.017,1.295,1.408-1.895,1.128-4.765-1.076-7.752.11-.576.688-.272-.6-.5,1.532l-.014,6.227c-.009,2.789-.026,5.589-.071,8.374l20.648.032c1.4-12.779-8.181-21.981-20.744-20.487Z" transform="translate(-3335.832 -760.451)" fill="#00354e" fill-rule="evenodd"/>
            <path id="Path_29843" data-name="Path 29843" d="M3532.36,1191.594c11.2,1.424,18.909-5.915,20.714-15.191l-20.648-.032Z" transform="translate(-3336.345 -1111.323)" fill="#00354e" fill-rule="evenodd"/>
            <path id="Path_29844" data-name="Path 29844" d="M2245.348,1362.445c12.478-2.968,18.268,6.581,21.04,6.36,2.319-.185,2.5-2.7,1.3-4.191a31.723,31.723,0,0,0-3.937-3.128c-16.057-10.683-36.513,2.239-32.644,6.535,3.033,3.368,3.6-3.045,14.242-5.575Z" transform="translate(-2106.848 -1282.266)" fill="#00354e" fill-rule="evenodd"/>
            <path id="Path_29845" data-name="Path 29845" d="M1937.939,882.586c-2.556,3.776-5.408,3.355-4.217,7.624,4.735,1.96,4.736-2.3,8.018-3.881,1.674,1.554,3.917,5.111,6.759,4.322,4.361-2.538-2.189-5.95-3.1-8.065,1.165-2.032,7.307-5.455,3.033-8.033-2.589-.82-5.026,2.918-6.69,4.329-3.159-1.694-4.834-6.534-7.641-3.944-2.68,2.473,2.7,6.329,3.84,7.648Z" transform="translate(-1826.075 -825.912)" fill="#00354e" fill-rule="evenodd"/>
            <path id="Path_29846" data-name="Path 29846" d="M240.493,643.16l4.67-.513c-.334-2.247-.983-3.628-.5-5.837,4.483-4.1,5.745,2.835,4.606,7.118-1.186,4.462-3.915,6.253-1.718,12.022l4.281-.7c-1.3-5.418.4-6.392,1.932-10.57,3.723-10.141-4.877-17.055-11.343-12.159-3.355,2.541-2.7,5.877-1.928,10.637Z" transform="translate(-226.559 -596.134)" fill="#00354e" fill-rule="evenodd"/>
            <path id="Path_29847" data-name="Path 29847" d="M2792.028,884.9c-1.239,2.026-6.371,5.035-3.949,7.556,2.762,2.874,5.972-2.913,8.1-3.91,1.069,1.737,3.111,5.358,6.188,4.393,3.876-2.7-1.459-5.445-3.177-8.039,1.068-1.715,2.27-2.434,3.518-3.721,3.064-3.16-1.311-8.155-6.539.086-2.394-1.11-5.007-6.3-7.811-4.078-3.083,2.439,2.6,5.828,3.666,7.711Z" transform="translate(-2632.759 -828.231)" fill="#00354e" fill-rule="evenodd"/>
            <path id="Path_29848" data-name="Path 29848" d="M1248.463,1444.025l12.718-.011.009-13.6-7.358-.085c-2.493.139-4.242,2.292-4.989,4.527s-.393,6.574-.379,9.174Z" transform="translate(-1179.094 -1351.184)" fill="#00354e" fill-rule="evenodd"/>
            <path id="Path_29849" data-name="Path 29849" d="M427.683,1319.753c.336-.19-.91-1.348,1.3-.05-.7.65.32.234-.733.376C426.36,1320.335,428.6,1320.369,427.683,1319.753ZM420,1330.377l-.493,3.117,6.022-.863c.029-5.372,2.35-1.5,2.639-7.436l-.142-3.51c2.895.411,2.543.252,4.4,1.7,1.694,1.016,6.123,3.821,7.223,4.986a8.831,8.831,0,0,1-2.438,1.257c1.666,1.037,1.749,3.29,2.372,4.884,1.469-.737,5.759-4.888,6.471-6.891-2.106-2.242-5.957-3.459-8.4-5.316a27.515,27.515,0,0,1-5.009-2.424c-1.192-.788-1.012-1.07-1.8-1.928-1.2-1.309-.657-.063-1.724-1.962-.347,1.345.009.5-1.286.825-.026.006-1.213.068-1.577.139.04,1.093-.047.66.381,1.481l.725.9c-2.228,2.346-1.608,1.949-1.172,5.385-1.71.464-.25-1.869-1.564.5a20.793,20.793,0,0,1-1.053,2.311c-.842,1.308-1.936,2.642-3.581,2.844Z" transform="translate(-396.231 -1243.197)" fill="#00354e" fill-rule="evenodd"/>
            <path id="Path_29850" data-name="Path 29850" d="M4365.406,2684.03a20.4,20.4,0,0,0,.159,2.68,11.24,11.24,0,0,1,.083,1.682c-.269,1.4.414.284-.671,1.1l2.283,13.169c1.961-.265.781.011.528-6.005-.105-2.511-.048-4.951-.053-7.462-.008-4.049-.286-10.337.819-13.563.036.109-.666,9.994-.687,11.906a123.128,123.128,0,0,0,.49,13.208c.515-.616.083.1.468-.867l.548-2.41c.229-1.194.416-1.881.6-3.093.34-2.2.7-4.494,1.031-6.815.777-5.408.641-9.3.936-14.661-.646-.738-.837-1.4-1.519-2.169-4.888.039-5.422,8.387-5.017,13.3Z" transform="translate(-4122.757 -2522.762)" fill="#00354e" fill-rule="evenodd"/>
            <path id="Path_29852" data-name="Path 29852" d="M380.975,1302.211c.081.088.211.1.243.261s.184.2.223.259a2.677,2.677,0,0,1,.448.792c1.646-.2,2.74-1.536,3.581-2.844a20.837,20.837,0,0,0,1.053-2.311c1.314-2.367-.146-.034,1.564-.5-.435-3.435-1.056-3.039,1.172-5.385l-.725-.9c-.428-.821-.341-.388-.381-1.481.365-.07,1.552-.132,1.577-.139,1.3-.328.94.52,1.286-.825-1.284-2.348-3.373-1.745-4.979-.327-3.634,3.208-1.624,1.09-4.664,2.8-4.791,2.7-.31,4.663-.4,10.6Z" transform="translate(-358.117 -1216.343)" fill="#00354e" fill-rule="evenodd"/>
            <path id="Path_29853" data-name="Path 29853" d="M54.33,1856.905l.074.7c.867,2.156,5.178,4.413,7.043,5.84,1.25.956,2.24,1.753,3.5,2.715,1.438,1.1,2.254,2.135,3.59,3.147l.04-1.862c1.358-.905,1.271-.281,2.27-1.426-.518-.4-.081-.036-.829-.369l-1.1-1.6c-.646,1.224-.279.531-1.041,1.249-1.5-2.094-2.15-2.175-3.836-3.612a36.673,36.673,0,0,1-4.064-3.952,8.546,8.546,0,0,1,4.222-3.393c-.077-.093-.2-.347-.239-.272l-2.143-2.163c-.9-.959-1.047-1.537-2.277-2.283a59.828,59.828,0,0,1-5.2,7.279Z" transform="translate(-51.314 -1747.218)" fill="#00354e" fill-rule="evenodd"/>
            <path id="Path_29854" data-name="Path 29854" d="M4219.9,2821.292a70.065,70.065,0,0,0,3.692,6.97,60.147,60.147,0,0,1,3.657,6.489l-.027.058-2.283-13.168c-.106-2.077-.621-2.641-1.182-4.557-1.037-2.5-3.289-7.685-6.54-6.17-1.808,2.849,1.747,8,2.682,10.378Z" transform="translate(-3982.727 -2654.905)" fill="#00354e" fill-rule="evenodd"/>
            <path id="Path_29855" data-name="Path 29855" d="M3,952.366l2.392-1.745c-.9-1.8-2.88-2.393-1.564-4.529,2.675-1.777,4.321,2.193,4.793,4.733.755,4.06.1,4.923,3.023,7.111a16.665,16.665,0,0,0,2.073-1.917c-2.531-3.5-1.4-3.041-2.351-7.565C8.81,936.276-6.324,944.614,3,952.366Z" transform="translate(0.002 -890.234)" fill="#00354e" fill-rule="evenodd"/>
            <path id="Path_29856" data-name="Path 29856" d="M4435.62,2892.026l.355.027c.746-2.424,11.769-18,9.138-20.451C4439.71,2868.766,4436.2,2887.025,4435.62,2892.026Z" transform="translate(-4189.481 -2712.202)" fill="#00354e" fill-rule="evenodd"/>
            <path id="Path_29857" data-name="Path 29857" d="M530.679,1451.018c-.288,5.936-2.61,2.065-2.639,7.436,5.519-.686,6.966-1.562,11.685-3a8.819,8.819,0,0,0,2.438-1.257c-1.1-1.165-5.529-3.971-7.223-4.987-.47.432,0,.216-1.092.739a9.591,9.591,0,0,1-.918.328A14.114,14.114,0,0,1,530.679,1451.018Z" transform="translate(-498.738 -1369.021)" fill="#00354e" fill-rule="evenodd"/>
            <path id="Path_29858" data-name="Path 29858" d="M160.212,1882.175a8.549,8.549,0,0,0-4.222,3.394,36.9,36.9,0,0,0,4.064,3.952c1.686,1.437,2.334,1.518,3.836,3.611.762-.718.4-.024,1.041-1.249l.6-12.791c-1.521.619-3.346,2.514-4.214,3.018C160.278,1882.714,161.008,1883.043,160.212,1882.175Z" transform="translate(-147.334 -1775.049)" fill="#00354e" fill-rule="evenodd"/>
            <path id="Path_29859" data-name="Path 29859" d="M868.03,2852.5c.5,2.844,1.611,6.223,1.355,9.065l.033.3.652-.187c.211-2.891-1.321-16.092.429-18.94.093.2.138-.08.152.543l-.389,3.568c-.1,1.565-.175,3.65-.158,5.253.021,1.969-.256,8.838.952,9.833l.048-.615,1.027-6.351c-1.662-2.945,3.072-11.993-.39-15.712-2.587.421-3.182,2.666-3.487,5.523-.4,3.707.549,6.344-.224,7.719Z" transform="translate(-819.862 -2681.933)" fill="#00354e" fill-rule="evenodd"/>
            <path id="Path_29860" data-name="Path 29860" d="M1679.412,94.686c-.963-5.02,6.6-6.223,7.322-1.614C1687.592,98.555,1680.236,98.98,1679.412,94.686Zm-.887,2.486c-.85.917-4.67,4.873-1.632,3.781l2.616-2.607c3.143.855,5.427,1.543,7.588-.792,4.32-4.667-2.206-12.331-7.469-7.881-2.724,2.3-1.942,4.278-1.1,7.5Z" transform="translate(-1582.75 -83.661)" fill="#00354e" fill-rule="evenodd"/>
            <path id="Path_29861" data-name="Path 29861" d="M54.35,1575.395a59.84,59.84,0,0,0,5.2-7.279l-.725-1.385,6.682-6.66c3.435-3.929,2.278-3.761,9.1-4.066l.493-3.117a2.66,2.66,0,0,0-.448-.791c-.038-.057-.191-.1-.222-.259s-.163-.173-.243-.261c-.706,1.028-5.244,3.711-6.636,4.736a34.954,34.954,0,0,0-5.6,5.176c-3.041,3.4-6.538,8.076-7.611,13.906Z" transform="translate(-51.334 -1465.708)" fill="#00354e" fill-rule="evenodd"/>
            <path id="Path_29862" data-name="Path 29862" d="M770.27,2956.6c.256-2.843-.856-6.221-1.355-9.066-.625-2.973-2.427-8.249-5.513-7.6a1.848,1.848,0,0,0-.116.344l-.193,1.063C763.032,2944.48,769.181,2954.015,770.27,2956.6Z" transform="translate(-720.747 -2776.973)" fill="#00354e" fill-rule="evenodd"/>
            <path id="Path_29864" data-name="Path 29864" d="M924.437,2988.171l-1.027,6.351c1.355-2.167,7.261-11.075,6.491-13.676-.429-.316.869-.9-1.474-.307C926.442,2981.039,924.819,2986.207,924.437,2988.171Z" transform="translate(-872.169 -2815.136)" fill="#00354e" fill-rule="evenodd"/>
            <path id="Path_29865" data-name="Path 29865" d="M4308.536,2786.113l.027-.058c-2.082.316-4.27-.161-5.76.622.689,1.739,4.267,1.028,8.2,1.028,1.524,0,3.044-.009,4.567.021,4.276.085,3-.308,3.42-1.382l-8.462-.284-.354-.027c-.833-.578.026.645-.4-.629-.015-.046-.127-1.1-.14-1.207a122.748,122.748,0,0,1-.49-13.208c.021-1.911.723-11.8.687-11.906-1.1,3.226-.828,9.514-.82,13.563,0,2.51-.052,4.95.054,7.461.253,6.017,1.432,5.741-.528,6.005Z" transform="translate(-4064.034 -2606.209)" fill="#00354e" fill-rule="evenodd"/>
            <path id="Path_29866" data-name="Path 29866" d="M346,2228.735l.037-.929c-5.808,1.162-9.9,1.806-15.778.019v3.156c4.216.451,12.983-.44,15.741-2.245Z" transform="translate(-311.933 -2104.413)" fill="#00354e" fill-rule="evenodd"/>
            <path id="Path_29867" data-name="Path 29867" d="M3887.415,1237.526c-.23-3.47,1.012-9.758-.873-12.227a33.978,33.978,0,0,1-1.669,4.188c-.78,1.534-1.775,2.313-2.043,3.776A31.351,31.351,0,0,0,3887.415,1237.526Z" transform="translate(-3667.365 -1157.537)" fill="#00354e" fill-rule="evenodd"/>
            <path id="Path_29868" data-name="Path 29868" d="M384.02,1109.776l.757,4.608,4.469-.717a11.869,11.869,0,0,0-.665-4.724Z" transform="translate(-362.71 -1047.636)" fill="#00354e" fill-rule="evenodd"/>
            <path id="Path_29869" data-name="Path 29869" d="M648.006,2921.079l-14.4.118v.333l41.061-.265-.514-.138-24.514.022c-1.208-1-.931-7.865-.952-9.834-.017-1.6.053-3.688.158-5.253l.389-3.567c-.014-.623-.059-.347-.152-.543-1.75,2.848-.217,16.049-.429,18.939l-.652.187Z" transform="translate(-598.45 -2741.149)" fill="#00354e" fill-rule="evenodd"/>
            <path id="Path_29870" data-name="Path 29870" d="M498.35,3217.351l.094,1.232c.706,1.023-.267.383,1.338.67.229.041,1.737.006,2.08,0a12.5,12.5,0,0,0,3.994-.3v-.333c-1.185-1.26-2.618-1.426-4.4-1.667l-1.391-.1C499.333,3217.41,499.8,3217.218,498.35,3217.351Z" transform="translate(-470.696 -3038.576)" fill="#00354e" fill-rule="evenodd"/>
            <path id="Path_29871" data-name="Path 29871" d="M305.23,3221.957c.719,1.07-.51.368,1.377.721.178.034,1.771,0,2.083,0,5.559-.024,3.051.17,3.94-.741-2-1.85-4.337-1.485-7.116-1.314Z" transform="translate(-288.292 -3041.996)" fill="#00354e" fill-rule="evenodd"/>
            <path id="Path_29872" data-name="Path 29872" d="M230.139,1218.519a10.8,10.8,0,0,0,2.349-1.881,4.755,4.755,0,0,0-1.934-2.363,4.572,4.572,0,0,0-2.352,1.949,5.39,5.39,0,0,0,1.938,2.294Z" transform="translate(-215.538 -1147.124)" fill="#00354e" fill-rule="evenodd"/>
            <path id="Path_29873" data-name="Path 29873" d="M1354.176,1437.143l.458-.007-.1-13.943-6.544-.143-1.165.4,7.358.085Z" transform="translate(-1272.09 -1344.314)" fill="#00354e" fill-rule="evenodd"/>
            <path id="Path_29874" data-name="Path 29874" d="M3699.19,884.955c.556,1.422,2.836,3.155,4.311,3.134.134-1.751-.278-1.546-1.514-2.416C3700.969,884.958,3700.076,883.952,3699.19,884.955Z" transform="translate(-3493.917 -835.68)" fill="#00354e" fill-rule="evenodd"/>
            <path id="Path_29875" data-name="Path 29875" d="M4343.68,2911.264c.562,1.916,1.076,2.48,1.181,4.557,1.085-.821.4.3.671-1.1a11.119,11.119,0,0,0-.083-1.682,20.562,20.562,0,0,1-.159-2.679,7.643,7.643,0,0,0-1.113.547A5.651,5.651,0,0,0,4343.68,2911.264Z" transform="translate(-4102.643 -2749.086)" fill="#00354e" fill-rule="evenodd"/>
            <path id="Path_29876" data-name="Path 29876" d="M307.978,3112.14c-1.53.635-1.634.423-3.307.421l.034-4.126h-.525l.331,4.423a10.859,10.859,0,0,0,1.973.218C308.233,3112.893,307.658,3113.2,307.978,3112.14Z" transform="translate(-287.301 -2936.174)" fill="#00354e" fill-rule="evenodd"/>
            <path id="Path_29877" data-name="Path 29877" d="M508.729,3197.289l1.391.1.523-1.174c-1.217,0-2.46-.34-3,.414C507.958,3197.354,506.661,3196.731,508.729,3197.289Z" transform="translate(-479.363 -3019.012)" fill="#00354e" fill-rule="evenodd"/>
          </g>
        </g>
      </g>
      <path id="Path_29878" data-name="Path 29878" d="M-850.635-115.151h-3.831l-8.674-13.107v13.107h-3.831v-19.126h3.831l8.674,13.134v-13.134h3.831Zm12.094.192a9.9,9.9,0,0,1-4.925-1.259,9.4,9.4,0,0,1-3.557-3.489,9.76,9.76,0,0,1-1.313-5.048,9.709,9.709,0,0,1,1.313-5.021,9.4,9.4,0,0,1,3.557-3.489,9.9,9.9,0,0,1,4.925-1.259,9.872,9.872,0,0,1,4.94,1.259,9.323,9.323,0,0,1,3.53,3.489,9.787,9.787,0,0,1,1.3,5.021,9.84,9.84,0,0,1-1.3,5.048,9.3,9.3,0,0,1-3.543,3.489A9.9,9.9,0,0,1-838.541-114.96Zm0-3.42a5.835,5.835,0,0,0,3.037-.78,5.345,5.345,0,0,0,2.052-2.23,7.316,7.316,0,0,0,.739-3.366,7.231,7.231,0,0,0-.739-3.352,5.272,5.272,0,0,0-2.052-2.2,5.917,5.917,0,0,0-3.037-.766,5.991,5.991,0,0,0-3.051.766,5.247,5.247,0,0,0-2.066,2.2,7.234,7.234,0,0,0-.739,3.352,7.319,7.319,0,0,0,.739,3.366,5.318,5.318,0,0,0,2.066,2.23A5.908,5.908,0,0,0-838.541-118.38Zm27.882,3.229-4.214-7.443h-1.806v7.443h-3.831v-19.1h7.169a8.371,8.371,0,0,1,3.776.78,5.448,5.448,0,0,1,2.339,2.107,5.749,5.749,0,0,1,.78,2.969,5.686,5.686,0,0,1-1.094,3.407,5.622,5.622,0,0,1-3.256,2.093l4.569,7.744Zm-6.02-10.316h3.2a3.2,3.2,0,0,0,2.326-.752,2.8,2.8,0,0,0,.766-2.093,2.672,2.672,0,0,0-.766-2.038,3.276,3.276,0,0,0-2.326-.725h-3.2Zm16.992-5.691v4.788h6.43v3.037h-6.43v5.062h7.251v3.119h-11.082v-19.126h11.082v3.119Zm9.249,6.43a10,10,0,0,1,1.272-5.048,9.085,9.085,0,0,1,3.475-3.475,9.861,9.861,0,0,1,4.94-1.245,9.715,9.715,0,0,1,5.609,1.642,8.584,8.584,0,0,1,3.365,4.542h-4.405a4.565,4.565,0,0,0-1.847-2.052,5.42,5.42,0,0,0-2.751-.684,5.658,5.658,0,0,0-2.969.78,5.322,5.322,0,0,0-2.025,2.2,7.262,7.262,0,0,0-.725,3.338,7.282,7.282,0,0,0,.725,3.325,5.3,5.3,0,0,0,2.025,2.216,5.658,5.658,0,0,0,2.969.78,5.336,5.336,0,0,0,2.751-.7,4.648,4.648,0,0,0,1.846-2.066h4.405a8.538,8.538,0,0,1-3.352,4.556,9.757,9.757,0,0,1-5.623,1.628,9.861,9.861,0,0,1-4.94-1.245,9.113,9.113,0,0,1-3.475-3.461A9.934,9.934,0,0,1-790.437-124.728Zm30.263,9.768a9.9,9.9,0,0,1-4.925-1.259,9.4,9.4,0,0,1-3.557-3.489,9.76,9.76,0,0,1-1.313-5.048,9.706,9.706,0,0,1,1.313-5.021,9.4,9.4,0,0,1,3.557-3.489,9.9,9.9,0,0,1,4.925-1.259,9.872,9.872,0,0,1,4.94,1.259,9.324,9.324,0,0,1,3.528,3.489,9.785,9.785,0,0,1,1.3,5.021,9.84,9.84,0,0,1-1.3,5.048,9.3,9.3,0,0,1-3.543,3.489A9.9,9.9,0,0,1-760.175-114.96Zm0-3.42a5.836,5.836,0,0,0,3.037-.78,5.346,5.346,0,0,0,2.052-2.23,7.317,7.317,0,0,0,.739-3.366,7.233,7.233,0,0,0-.739-3.352,5.273,5.273,0,0,0-2.052-2.2,5.917,5.917,0,0,0-3.037-.766,5.991,5.991,0,0,0-3.051.766,5.247,5.247,0,0,0-2.066,2.2,7.233,7.233,0,0,0-.739,3.352,7.317,7.317,0,0,0,.739,3.366,5.318,5.318,0,0,0,2.066,2.23A5.908,5.908,0,0,0-760.175-118.38Zm21.917,3.229-4.214-7.443h-1.806v7.443h-3.831v-19.1h7.169a8.371,8.371,0,0,1,3.776.78,5.447,5.447,0,0,1,2.34,2.107,5.751,5.751,0,0,1,.78,2.969,5.686,5.686,0,0,1-1.095,3.407,5.623,5.623,0,0,1-3.256,2.093l4.57,7.744Zm-6.02-10.316h3.2a3.2,3.2,0,0,0,2.326-.752,2.8,2.8,0,0,0,.766-2.093,2.672,2.672,0,0,0-.766-2.038,3.276,3.276,0,0,0-2.326-.725h-3.2Zm19.838-8.783a11.407,11.407,0,0,1,5.294,1.177,8.406,8.406,0,0,1,3.53,3.352,9.982,9.982,0,0,1,1.245,5.048,9.831,9.831,0,0,1-1.245,5.021,8.456,8.456,0,0,1-3.53,3.325,11.4,11.4,0,0,1-5.294,1.177h-6.676v-19.1Zm-.137,15.843a6.291,6.291,0,0,0,4.652-1.642,6.253,6.253,0,0,0,1.642-4.624,6.4,6.4,0,0,0-1.642-4.666,6.2,6.2,0,0,0-4.652-1.682h-2.709v12.614Zm30.29-15.843v3.092h-7.962v4.9h6.1v3.037h-6.1v8.072h-3.831v-19.1Zm11.027,19.29a9.9,9.9,0,0,1-4.925-1.259,9.4,9.4,0,0,1-3.557-3.489,9.759,9.759,0,0,1-1.313-5.048,9.706,9.706,0,0,1,1.313-5.021,9.4,9.4,0,0,1,3.557-3.489,9.9,9.9,0,0,1,4.925-1.259,9.873,9.873,0,0,1,4.94,1.259,9.325,9.325,0,0,1,3.53,3.489,9.786,9.786,0,0,1,1.3,5.021,9.839,9.839,0,0,1-1.3,5.048,9.3,9.3,0,0,1-3.543,3.489A9.9,9.9,0,0,1-683.259-114.96Zm0-3.42a5.835,5.835,0,0,0,3.037-.78,5.344,5.344,0,0,0,2.052-2.23,7.316,7.316,0,0,0,.739-3.366,7.232,7.232,0,0,0-.739-3.352,5.272,5.272,0,0,0-2.052-2.2,5.916,5.916,0,0,0-3.037-.766,5.991,5.991,0,0,0-3.051.766,5.247,5.247,0,0,0-2.066,2.2,7.233,7.233,0,0,0-.739,3.352,7.318,7.318,0,0,0,.739,3.366,5.318,5.318,0,0,0,2.066,2.23A5.908,5.908,0,0,0-683.259-118.38Zm15.843-15.87v11.821a4.053,4.053,0,0,0,1.012,2.969,3.818,3.818,0,0,0,2.846,1.026,3.856,3.856,0,0,0,2.873-1.026,4.053,4.053,0,0,0,1.012-2.969V-134.25h3.858v11.793a7.616,7.616,0,0,1-1.054,4.119,6.681,6.681,0,0,1-2.818,2.53,8.947,8.947,0,0,1-3.926.848,8.708,8.708,0,0,1-3.872-.848,6.458,6.458,0,0,1-2.75-2.531,7.855,7.855,0,0,1-1.012-4.119v-11.793Zm31.084,19.1h-3.831l-8.674-13.107v13.107h-3.831v-19.126h3.831l8.674,13.134v-13.134h3.831Zm9.905-19.1a11.408,11.408,0,0,1,5.295,1.177,8.4,8.4,0,0,1,3.53,3.352,9.982,9.982,0,0,1,1.245,5.048,9.832,9.832,0,0,1-1.245,5.021,8.456,8.456,0,0,1-3.53,3.325,11.407,11.407,0,0,1-5.295,1.177H-633.1v-19.1Zm-.137,15.843a6.291,6.291,0,0,0,4.652-1.642,6.253,6.253,0,0,0,1.642-4.624,6.4,6.4,0,0,0-1.642-4.666,6.2,6.2,0,0,0-4.652-1.682h-2.709v12.614Z" transform="translate(870.143 335.959)" fill="#00354e"/>
    </g>
    <g id="Group_2798" data-name="Group 2798" transform="translate(587 674)" style="mix-blend-mode: luminosity;isolation: isolate">
      <g id="Group_37536-2" data-name="Group 37536" transform="translate(0 0)">
        <path id="Union_3-2" data-name="Union 3" d="M120.222,181.62H12.116c-4.1,0-5.412.635-6.158-1.12a15.677,15.677,0,0,1,5.641-.344,19.772,19.772,0,0,0,5.338-.2h0l.284-1.335c2.779-.171,5.114-.536,7.116,1.314-.658.674.546.743-1.042.743,1.589,0,.384-.069,1.043-.743l3.411.068a2.668,2.668,0,0,1,.262.449,2.658,2.658,0,0,0-.263-.45l-.094-1.232h0c-.14-1.491-1.656-1.783-4.514-4.711l-2.037-1.57L25.069,139v0l-3.966,33.5-.425,3.472h0c-.32,1.062.255.753-1.494.936a10.9,10.9,0,0,1-1.973-.218l-.331-4.423H17.4l-.034,4.126c.36,0,.648.011.893.02-.245-.009-.532-.019-.893-.02l.034-4.126h-.525c-1.207-3.98,1.478-3.135-1.759-7.585a85.9,85.9,0,0,1-9.922-19.9A84.348,84.348,0,0,1,1.574,128.6C1.216,125.4.8,113.575,3.088,110.39h0l-.074-.7h0l0,0c1.074-5.829,4.57-10.507,7.611-13.9a34.97,34.97,0,0,1,5.6-5.176c1.392-1.025,5.929-3.708,6.635-4.736h0c.089-5.936-4.392-7.9.4-10.6,3.039-1.71,1.029.408,4.663-2.8,1.606-1.417,3.7-2.021,4.979.327a4.3,4.3,0,0,1-.211.757A4.3,4.3,0,0,0,32.9,72.8c1.067,1.9.519.654,1.724,1.962.79.859.61,1.14,1.8,1.928a27.526,27.526,0,0,0,5.009,2.424c2.439,1.856,6.29,3.074,8.4,5.315A9.071,9.071,0,0,1,48.281,86.8a9.076,9.076,0,0,0,1.548-2.37c-2.106-2.242-5.957-3.459-8.4-5.315h0l.6-.313.543-.238.075-.029,9.744-2.71c8.114-2.36,13.182-3.66,20.927-7.232,3.507-1.617,6.083-3.659,9.05-5.1V51.3c-.011.207-.026.406-.044.6-11.762-.026-27.049-18.079-19.458-30.207,4.492-7.179,12.306-2.546,17.89,1.134a48.106,48.106,0,0,1,7.426,5.832,61.336,61.336,0,0,1,5.749,7.123c-.421.023-.83.04-1.228.052h10.563c.825-3.054,7.266-13.3,9.149-15.949,28.345-39.818,85.871-14.527,102.328,29.278l-.022-.009a24.871,24.871,0,0,1,3.125,4.332,15.965,15.965,0,0,1,1.775,6.228,25.758,25.758,0,0,1-.448,8.052,34.166,34.166,0,0,1-1.669,4.189c-.78,1.534-1.776,2.313-2.044,3.776h0c.268-1.462,1.264-2.241,2.044-3.775a33.935,33.935,0,0,0,1.669-4.188c1.885,2.468.642,8.756.873,12.227l-.124-.091c6.113,5.582,16.254,14.693,16.624,15.358,1.3,2.337-1.013,4.294-3.251,4.51-2.179-1.022-6.637-6.671-8.478-8.447a33.748,33.748,0,0,0-4.712-4.6c-2.383-2.986-4.993-5.3-7.352-8.132-2,.572-4.165,2.67-7.27,3.718a23.1,23.1,0,0,1-9.408.868h0a23.092,23.092,0,0,0,9.407-.868c3.1-1.049,5.267-3.146,7.27-3.719,2.358,2.834,4.968,5.146,7.351,8.132l-.088,43.988.009,7,16.456-18.2c1.837-1.771,4.22-4.5,8.35-3.616,10.275,2.21,8.418,16.715,6.717,24.922-.661,3.2-2.085,6.409-2.369,9.328h0c-.3,5.357-.159,9.253-.936,14.661-.334,2.321-.69,4.614-1.03,6.815-.187,1.212-.373,1.9-.6,3.093l-.548,2.41c-.385.972.047.251-.468.867a123,123,0,0,1-.491-13.148,122.647,122.647,0,0,0,.491,13.149c.013.1.125,1.16.14,1.206a2.493,2.493,0,0,1,.122.474,1.18,1.18,0,0,1,.276.155l.354.027,8.462.283c-.418,1.074.855,1.467-3.421,1.383-1.523-.031-3.043-.021-4.567-.021-3.932,0-7.51.71-8.2-1.029,1.48-.778,3.652-.309,5.724-.616l-.03-.175v0l-2.245-12.944c.427-.323.58-.346.625-.34-.044-.006-.2.016-.626.34l2.244,12.941a66.418,66.418,0,0,0-3.591-6.319,69.82,69.82,0,0,1-3.691-6.969c-2.135.25-4.984,1.97-7.644,2.523-3.33.693-6.107.392-9.514.346l.008,4.522h0c-.289,4.156-2.819,4.5-5.081,6.348l-138.727-.012-.514-.138h0L51.195,180h0l24.513-.022.514.138-41.061.265h0a8.891,8.891,0,0,1-3.012.305c-.3-.005-.626-.011-.981-.007s-1.851.039-2.08,0a2.989,2.989,0,0,0-.928-.07c-.072.011-.086.021-.1,0,.011.025.023.014.1,0a2.979,2.979,0,0,1,.928.07c.229.041,1.738.006,2.08,0s.678,0,.981.007a8.891,8.891,0,0,0,3.012-.305l41.061-.265,138.727.012h0l15.452.022c2.009-.109,3.753-.667,4.444.785-.917.706-25.58.886-51.89.886C155.275,181.82,125.773,181.62,120.222,181.62ZM20.4,180.681h0l1.072,0h0l-1.072,0Zm-2.4-.052a2.712,2.712,0,0,0-.76-.048.479.479,0,0,1-.054.009.32.32,0,0,0,.054-.009,1.051,1.051,0,0,1,.157-.01,4.094,4.094,0,0,1,.6.058Zm17.159-.582h0l14.4-.118h0l-14.394.118c-1.184-1.26-2.618-1.426-4.4-1.668l.523-1.174a10.658,10.658,0,0,0-2.372,0,10.739,10.739,0,0,1,2.371,0l-.523,1.174c1.785.243,3.218.407,4.4,1.667Zm15.628-18.7-.389,3.567c-.1,1.565-.175,3.65-.158,5.253.021,1.969-.256,8.839.952,9.833h0c-1.207-1-.93-7.865-.95-9.833-.017-1.6.053-3.689.158-5.253l.389-3.567c-.014-.623-.059-.347-.152-.543h0c.092.193.136-.08.151.541ZM244.5,179.9h0c.728-.1,1.022-.122,1.093-.422-.071.3-.366.322-1.093.421h0Zm-193.259-.52c.077-.123.168-.267.271-.43-.1.163-.195.307-.271.43Zm-3.074-8.818c.448,2.556,1.391,5.542,1.392,8.184,0-2.642-.944-5.628-1.392-8.184h0a3.369,3.369,0,0,0,.315-1.654,3.375,3.375,0,0,1-.315,1.653c-.624-2.973-2.427-8.249-5.513-7.6h0a2.5,2.5,0,0,1,.512-.054c2.775,0,4.412,4.855,5,7.66Zm-19.95,7.451-.054-.006.053.007Zm-.042-1.435Zm-9.9-.175h-.007Zm13.428-6.26c-.244,4.431.017,5.829-.765,6.259.782-.43.522-1.827.766-6.259l2.361-45.824.037-.929.823-.32c-.233-1.919-.763-3.183-.934-5.082a165.709,165.709,0,0,1,.564-18.242c2.445-1.626,8.167-4.618,9.515-6.213l-.714-2.222h0c-.582-1.489-.692-3.551-2.061-4.662,1.368,1.111,1.479,3.174,2.06,4.661l.714,2.222C42.724,95.131,37,98.124,34.558,99.75a165.707,165.707,0,0,0-.564,18.242c.171,1.9.7,3.163.934,5.082l-.823.32-.037.929Zm20.561,2.888h0a2.956,2.956,0,0,1-.328-1.106,2.954,2.954,0,0,0,.327,1.107Zm192.7-2.752c0-1.16.011-2.32.011-3.494C244.976,167.963,244.964,169.124,244.964,170.283Zm-187.8-1.47v0Zm.566-3.1a5.528,5.528,0,0,1-.555,3.075,5.535,5.535,0,0,0,.555-3.076c-.429-.315.87-.9-1.474-.307-1.012.255-1.93,1.723-2.638,3.361.707-1.638,1.625-3.105,2.637-3.36a6.878,6.878,0,0,1,1.292-.254c.411,0-.113.344.182.561Zm184.477.882a11.364,11.364,0,0,0-.938-3.67,11.372,11.372,0,0,1,.938,3.67Zm.647-.193c-.016-.016-.089-.136.032-.768a11.15,11.15,0,0,0-.083-1.682,20.413,20.413,0,0,1-.158-2.68h0c-.351-4.239,0-11.039,3.246-12.845-3.248,1.8-3.6,8.606-3.247,12.845h0a20.508,20.508,0,0,0,.158,2.68,11.15,11.15,0,0,1,.083,1.682c-.12.626-.05.75-.033.768Zm-5.677-.012c-.458-1.164-1.541-2.989-2.318-4.883.777,1.894,1.859,3.719,2.317,4.883Zm-188.787-3.54a18.5,18.5,0,0,0-.1,1.971,18.5,18.5,0,0,1,.1-1.97c.305-2.858.9-5.1,3.487-5.523a5.45,5.45,0,0,1,1.282,3.509,5.455,5.455,0,0,0-1.282-3.51C49.292,157.744,48.7,159.989,48.392,162.846Zm196.725,1.6Zm0-.071c.011-.322.03-.739.055-1.222-.026.483-.044.9-.056,1.222ZM42.555,163.239a2.007,2.007,0,0,1,.07-.211A1.912,1.912,0,0,0,42.555,163.239ZM245.389,154.5a11.3,11.3,0,0,1,.406-1.621c0,.012,0,.138-.012.356.012-.218.016-.345.013-.357a11.29,11.29,0,0,0-.406,1.623ZM220.027,137.711ZM33.492,124.647c-3.246,1.587-11.21,2.344-15.166,1.922C22.282,126.991,30.246,126.233,33.492,124.647Zm-15.166,1.922v-3.156a23.818,23.818,0,0,0,7.1,1.11,23.823,23.823,0,0,1-7.1-1.11l-.758.042-.349-1.363.04-1.862c1.358-.905,1.271-.281,2.269-1.426a2.5,2.5,0,0,0-.268-.195,2.523,2.523,0,0,1,.268.195c-1,1.145-.911.521-2.269,1.426l-.04,1.861h0l.35,1.363.758-.042Zm15.168-1.923.012-.006Zm.017-.008.143-.072-.142.072Zm.269-.141.024-.014Zm.215-.127.072-.046-.072.047ZM18.7,118.435c.078.035.144.062.2.083-.055-.021-.12-.048-.2-.083l-1.1-1.6h0Zm-5.824-11.309a8.541,8.541,0,0,0-4.222,3.394,36.762,36.762,0,0,0,4.064,3.952c1.686,1.437,2.334,1.518,3.836,3.612h0c-1.5-2.093-2.15-2.175-3.836-3.611a36.789,36.789,0,0,1-4.064-3.952,8.552,8.552,0,0,1,4.222-3.394c-.069-.083-.173-.3-.224-.285h0C12.709,106.841,12.809,107.046,12.877,107.126Zm.444.529c-.035,0-.084-.118-.333-.405.249.288.3.406.333.406Zm-.334-.406-.024-.027Zm-.03-.034-.072-.08.072.08Zm1.024-.154.031-.018Zm-3.487-2.37,2.143,2.163h0L10.5,104.691c-.9-.958-1.047-1.537-2.277-2.283h0C9.449,103.155,9.594,103.733,10.495,104.691ZM18.2,104.043Zm43.5-10.892c2.02-.507,4.508-.358,7.676-.31h0c-1.324-.02-2.529-.058-3.631-.058a16.781,16.781,0,0,0-4.045.368Zm20.852-.328h0l102.823-.012H82.544ZM31.94,82c-.289,5.935-2.61,2.066-2.639,7.436.03-5.37,2.35-1.5,2.639-7.436a14.146,14.146,0,0,0,2.251-.743,9.606,9.606,0,0,0,.918-.328c1.094-.523.622-.307,1.092-.738,1.694,1.016,6.123,3.821,7.223,4.986-1.1-1.165-5.529-3.97-7.223-4.986-1.86-1.448-1.508-1.29-4.4-1.7ZM23.772,87.18c1.645-.2,2.739-1.535,3.581-2.844a20.758,20.758,0,0,0,1.053-2.311,8.858,8.858,0,0,1,.614-1.08,8.478,8.478,0,0,0-.615,1.08,20.958,20.958,0,0,1-1.053,2.311c-.842,1.308-1.935,2.642-3.581,2.844Zm17.215-.748c.225-.091.473-.188.728-.294C41.46,86.244,41.212,86.341,40.987,86.432Zm33.751-7.293c-2.3.128-3.965,1.969-4.8,4.007.832-2.038,2.5-3.878,4.8-4.006l1.165-.4,6.47.142v0L75.9,78.735ZM29.97,81.527c-.435-3.436-1.056-3.039,1.172-5.385l-.725-.9c-.428-.821-.341-.388-.381-1.481.1-.019.257-.037.437-.054-.18.017-.339.035-.438.054.041,1.093-.047.66.381,1.481l.725.9c-2.228,2.346-1.607,1.949-1.172,5.385a1.575,1.575,0,0,1-.407.063A1.573,1.573,0,0,0,29.97,81.527Zm168.373-1.081a21.968,21.968,0,0,1-2.265-.165h0a21.935,21.935,0,0,0,2.265.165ZM31.451,76.556c.268.181.265.306.174.386.1-.018.235-.038.394-.06a1.872,1.872,0,0,1,.467-.027c0-.043.043-.142.266-.349a4.034,4.034,0,0,0-1.267-.607C31.219,75.9,31.67,76.432,31.451,76.556Zm.161-2.935-.019,0,.02,0c.078-.02.15-.035.216-.047-.067.012-.139.028-.217.047Zm164.466-7.9,0-.669,20.648.032c.733-6.7-1.55-12.412-5.7-16.12,4.146,3.708,6.429,9.422,5.7,16.119l-20.648-.032h0Zm13.478-13.307a5.888,5.888,0,0,1-4.284-3.134,5.885,5.885,0,0,0,4.283,3.133Zm0,0Zm.013,0ZM208.07,50c1.087.764,1.537.7,1.538,1.86C209.607,50.694,209.157,50.759,208.07,50Zm-.031-.022,0,0Zm-.127-.092-.023-.017Zm-.029-.021c-.942-.7-1.779-1.526-2.61-.583a1.064,1.064,0,0,1,.807-.423c.572,0,1.164.533,1.8,1.005ZM82.372,48.235V42.557A55.84,55.84,0,0,0,82.372,48.235ZM203.119,47.4c.91.409,1.159.442,1.209.5-.049-.058-.3-.089-1.21-.5-1.624-.73-5.367-.528-6.893-.462h0c.621-.027,1.607-.076,2.669-.076a12,12,0,0,1,4.226.539ZM188.838,35.829q-.328-.014-.678-.016l-48.722.016Zm57.3,143.995c.579-5,4.089-23.259,9.493-20.424,2.631,2.448-8.393,18.027-9.139,20.451ZM42.45,78.57c.373-.151.776-.3.125-.012-.369.139-.514.189-.53.189A3.624,3.624,0,0,1,42.45,78.57ZM14.6,71.395ZM12.663,69.1a4.574,4.574,0,0,1,2.352-1.949,4.752,4.752,0,0,1,1.935,2.363A10.791,10.791,0,0,1,14.6,71.395,5.388,5.388,0,0,1,12.663,69.1ZM8.624,60.592c-.472-2.54-2.119-6.511-4.793-4.734-1.316,2.136.662,2.733,1.564,4.529L3,62.132c-9.325-7.752,5.809-16.09,8.367-3.911.95,4.524-.18,4.066,2.351,7.565A16.663,16.663,0,0,1,11.647,67.7C8.72,65.515,9.379,64.652,8.624,60.592ZM21.309,62.14l4.561-.833a11.867,11.867,0,0,1,.665,4.725l-4.469.717Zm1.4-14.344c1.139-4.283-.124-11.217-4.606-7.118-.483,2.209.166,3.59.5,5.837l-4.67.513h0c-.773-4.76-1.427-8.1,1.928-10.637,6.466-4.9,15.066,2.018,11.343,12.159-1.534,4.179-3.237,5.153-1.932,10.57l-4.281.7c-2.2-5.77.532-7.56,1.719-12.023ZM95.775,13.511c-.838-3.221-1.62-5.2,1.1-7.5,5.263-4.45,11.789,3.214,7.469,7.881-2.161,2.335-4.445,1.648-7.588.792l-2.616,2.607a2.608,2.608,0,0,1-.813.189C91.977,17.481,95.027,14.319,95.775,13.511Zm.887-2.486c.823,4.293,8.179,3.869,7.322-1.614a3.331,3.331,0,0,0-3.48-2.88,3.7,3.7,0,0,0-3.842,4.495Z" transform="translate(0.001 -0.001)" fill="url(#linear-gradient)"/>
        <g id="Layer_x0020_1-2" data-name="Layer_x0020_1" transform="translate(0 0)">
          <g id="_1807787670112-2" data-name="_1807787670112" transform="translate(0 0)">
            <path id="Path_29829-2" data-name="Path 29829" d="M1490.461,649.82H1592a6.143,6.143,0,0,1,6.125,6.125V706.8H1484.42V655.863a6.059,6.059,0,0,1,6.042-6.042Z" transform="translate(-1402.048 -613.991)" fill="#fefefe" fill-rule="evenodd"/>
            <path id="Path_29830-2" data-name="Path 29830" d="M1036.115,1763.361l.514.137,138.727.012c2.262-1.849,4.792-2.192,5.081-6.348-.926-1.885-3.474-18.7-4.125-22.283l-7.9-44.658c-1.786-9.765-.919-13.926-11.931-14.028l-113.534.013-.458.007-12.718.011c-5.821-.088-9.341-.517-11.893,3.407-2.123,3.265-.483,8.786.208,12.611l9.009,50.668c.693,4.333,1.526,8.45,2.181,12.708.711,4.626,2.719,6.273,6.833,7.743Z" transform="translate(-960.409 -1583.383)" fill="#ffca08" fill-rule="evenodd"/>
            <path id="Path_29831-2" data-name="Path 29831" d="M400.641,1163.547c2.439,1.856,6.29,3.073,8.4,5.316-.713,2-5,6.153-6.471,6.891l.714,2.222c-1.348,1.594-7.069,4.587-9.515,6.213a165.707,165.707,0,0,0-.564,18.242c.172,1.9.7,3.162.934,5.082l-.823.32-.037.93-2.361,45.824c-.387,7.033.495,6.424-3.532,6.435-.4-5.925-1.639-34.651-3.106-37.584l-3.965,33.5,2.037,1.57c2.859,2.927,4.374,3.22,4.514,4.711,1.445-.133.983.059,1.711-.5-2.068-.558-.771.065-1.082-.658.535-.755,1.778-.417,3-.414l-.523,1.174c1.786.242,3.219.407,4.4,1.667l14.4-.118-.033-.3c-1.089-2.589-7.237-12.124-7.177-15.263l.193-1.063a1.769,1.769,0,0,1,.117-.344c3.086-.644,4.889,4.632,5.513,7.6.773-1.376-.173-4.013.224-7.719.305-2.858.9-5.1,3.487-5.523,3.462,3.719-1.273,12.767.39,15.712.382-1.965,2-7.133,3.989-7.632,2.344-.589,1.045-.009,1.474.307.77,2.6-5.137,11.509-6.491,13.676l-.048.615,24.514-.022c-4.114-1.47-6.122-3.116-6.833-7.743-.654-4.258-1.488-8.376-2.181-12.708l-9.009-50.668c-.69-3.824-2.331-9.346-.207-12.611,2.551-3.923,6.072-3.5,11.893-3.407-.014-2.6-.367-6.94.379-9.173s2.5-4.389,4.989-4.527l1.165-.4,6.544.143-.047-15.409c-2.979,1.447-5.56,3.5-9.077,5.119-7.746,3.572-12.813,4.873-20.928,7.232l-9.744,2.71c-2.041.77,1.935-.84-.618.266l-.6.313Z" transform="translate(-359.206 -1084.437)" fill="#cdddf2" fill-rule="evenodd"/>
            <path id="Path_29832-2" data-name="Path 29832" d="M1952.859,42.57a23.736,23.736,0,0,1,11.58,1.3,21.234,21.234,0,0,1,4.282,2.353c1.547,1.145,2.052,3.127,3.691,3.788-16.457-43.8-73.984-69.1-102.329-29.278-1.885,2.648-8.341,12.921-9.152,15.96l84.9-.028c4.439.022,6.181,1.545,7.723,4.724a5.133,5.133,0,0,0-.234.475l-.455.7Z" transform="translate(-1757.664 -0.857)" fill="#cddef2" fill-rule="evenodd"/>
            <path id="Path_29833-2" data-name="Path 29833" d="M3964.967,2111.461l-.007,31.546c3.407.046,6.184.347,9.514-.345,2.661-.553,5.51-2.273,7.644-2.523-.936-2.382-4.49-7.53-2.683-10.379,3.251-1.515,5.5,3.671,6.54,6.17.107-.086.411-.314.5-.363a7.775,7.775,0,0,1,1.113-.547c-.407-4.91.128-13.259,5.017-13.3.681.769.873,1.43,1.518,2.168.284-2.919,1.708-6.133,2.369-9.329,1.7-8.207,3.558-22.711-6.717-24.922-4.13-.888-6.512,1.844-8.35,3.616l-16.457,18.2Z" transform="translate(-3744.939 -1973.751)" fill="#cddef2" fill-rule="evenodd"/>
            <path id="Path_29834-2" data-name="Path 29834" d="M3533.439,1425.005l0,9.635c11.011.1,10.144,4.263,11.931,14.028l7.9,44.658c.65,3.587,3.2,20.4,4.125,22.283l-.009-4.523.007-31.546-.009-7,.088-43.988c-2.383-2.986-4.993-5.3-7.352-8.132-2,.573-4.165,2.67-7.27,3.719a23.091,23.091,0,0,1-9.411.868Z" transform="translate(-3337.363 -1341.829)" fill="#f5941d" fill-rule="evenodd"/>
            <path id="Path_29835-2" data-name="Path 29835" d="M156.851,1564.723l-6.022.863c-6.824.305-5.667.137-9.1,4.066l-6.682,6.66.725,1.384c1.231.746,1.376,1.325,2.277,2.283l2.143,2.163c.041-.076.161.179.239.272.8.869.066.539,1.1-.065.868-.5,2.693-2.4,4.214-3.018l-.6,12.791,1.1,1.6c.748.333.31-.032.828.369-1,1.145-.911.521-2.27,1.426l-.04,1.862.349,1.362.758-.042c5.873,1.787,9.97,1.143,15.778-.019l.823-.32c-.233-1.919-.762-3.182-.934-5.082a165.673,165.673,0,0,1,.564-18.242c2.445-1.626,8.167-4.618,9.515-6.213l-.714-2.222c-.623-1.594-.706-3.847-2.372-4.884-4.72,1.44-6.166,2.315-11.685,3Z" transform="translate(-127.55 -1475.289)" fill="#eb5669" fill-rule="evenodd"/>
            <path id="Path_29836-2" data-name="Path 29836" d="M1117.836,361.055c.349-3.537-.729-10.041.907-12.756,2.293-3.806,5.7-3.084,10.7-3.361a61.277,61.277,0,0,0-5.749-7.123,48.142,48.142,0,0,0-7.426-5.832c-5.583-3.68-13.4-8.313-17.89-1.134C1090.786,342.977,1106.074,361.029,1117.836,361.055Z" transform="translate(-1035.508 -309.161)" fill="#cddef2" fill-rule="evenodd"/>
            <path id="Path_29837-2" data-name="Path 29837" d="M313.074,2277l-.034,4.126c1.673,0,1.777.214,3.307-.421l.425-3.471,3.966-33.5c1.467,2.934,2.709,31.66,3.106,37.585,4.028-.011,3.145.6,3.532-6.435l2.361-45.824c-2.758,1.805-11.526,2.7-15.741,2.245v-3.155l-.758.041Z" transform="translate(-295.669 -2104.738)" fill="#2d4ca7" fill-rule="evenodd"/>
            <path id="Path_29838-2" data-name="Path 29838" d="M38.9,2055.331h.525l.164-48.806-.349-1.363c-1.336-1.012-2.153-2.045-3.59-3.147-1.255-.962-2.246-1.759-3.5-2.714-1.865-1.427-6.176-3.685-7.043-5.84-2.292,3.184-1.872,15.01-1.515,18.208a84.33,84.33,0,0,0,3.624,16.174,85.841,85.841,0,0,0,9.922,19.9C40.375,2052.2,37.689,2051.351,38.9,2055.331Z" transform="translate(-22.017 -1883.071)" fill="#cdddf2" fill-rule="evenodd"/>
            <path id="Path_29839-2" data-name="Path 29839" d="M3222.257,755.59c12.563-1.494,22.142,7.708,20.745,20.487-1.805,9.276-9.51,16.616-20.714,15.191-20.421-4.063-20.445-31.824-.029-35.678Zm-.792-2.88c-6.589,1.739-8.405,3.11-12.2,6.9-3.129,3.122-5.309,8.436-5.188,14.282a20.773,20.773,0,0,0,18.272,20.283,23.109,23.109,0,0,0,9.411-.868c3.1-1.049,5.267-3.146,7.27-3.719,2.358,2.834,4.968,5.146,7.351,8.132a33.73,33.73,0,0,1,4.712,4.6c1.841,1.776,6.3,7.424,8.478,8.447,2.238-.216,4.555-2.173,3.251-4.51-.511-.916-19.587-17.881-21.085-19.53.268-1.462,1.263-2.241,2.044-3.776a34.213,34.213,0,0,0,1.669-4.188,25.749,25.749,0,0,0,.448-8.052,15.967,15.967,0,0,0-1.774-6.228c-.926-2-5.247-6.967-6.794-8.112a21.269,21.269,0,0,0-4.282-2.353,23.728,23.728,0,0,0-11.579-1.3Z" transform="translate(-3026.272 -710.997)" fill="#1a206b" fill-rule="evenodd"/>
            <path id="Path_29840-2" data-name="Path 29840" d="M3271.457,843.447l.066-15.224c.043-2.785.062-5.586.07-8.374l.015-6.227c.224-2.135-.08-.845.5-1.532,2.987-1.186,5.858,1.017,7.752-.11-.441-1.391.665-.527-1.294-1.408-1.624-.73-5.367-.529-6.894-.462l-.24-2.339c-20.416,3.854-20.392,31.616.029,35.678Z" transform="translate(-3075.442 -763.176)" fill="#f0f2fd" fill-rule="evenodd"/>
            <path id="Path_29841-2" data-name="Path 29841" d="M316.367,3247.008,177.64,3247l-41.061.265a12.515,12.515,0,0,1-3.994.3c-.342,0-1.851.038-2.08,0-1.605-.287-.633.354-1.338-.67l-3.411-.068c-.889.911,1.619.718-3.94.741-.311,0-1.9.035-2.083,0-1.887-.353-.658.348-1.377-.722-3.453.809-7.951-.51-10.979.539.746,1.755,2.058,1.125,6.158,1.12H221.641c10.826,0,112.741.762,114.624-.686-.69-1.452-2.435-.894-4.444-.785l-15.453-.021Z" transform="translate(-101.419 -3066.88)" fill="#585858" fill-rule="evenodd"/>
            <path id="Path_29842-2" data-name="Path 29842" d="M3545.415,812.86c-1.475.021-3.754-1.712-4.311-3.134.886-1,1.779,0,2.8.718C3545.137,811.314,3545.549,811.109,3545.415,812.86Zm-13.6-7.817.239,2.339c1.527-.066,5.271-.268,6.894.462,1.959.882.854.017,1.295,1.408-1.895,1.128-4.765-1.076-7.752.11-.576.688-.272-.6-.5,1.532l-.014,6.227c-.009,2.789-.026,5.589-.071,8.374l20.648.032c1.4-12.779-8.181-21.981-20.744-20.487Z" transform="translate(-3335.832 -760.451)" fill="#d3e1f3" fill-rule="evenodd"/>
            <path id="Path_29843-2" data-name="Path 29843" d="M3532.36,1191.594c11.2,1.424,18.909-5.915,20.714-15.191l-20.648-.032Z" transform="translate(-3336.345 -1111.323)" fill="#f0ab5d" fill-rule="evenodd"/>
            <path id="Path_29844-2" data-name="Path 29844" d="M2245.348,1362.445c12.478-2.968,18.268,6.581,21.04,6.36,2.319-.185,2.5-2.7,1.3-4.191a31.723,31.723,0,0,0-3.937-3.128c-16.057-10.683-36.513,2.239-32.644,6.535,3.033,3.368,3.6-3.045,14.242-5.575Z" transform="translate(-2106.848 -1282.266)" fill="#2d4ca7" fill-rule="evenodd"/>
            <path id="Path_29845-2" data-name="Path 29845" d="M1937.939,882.586c-2.556,3.776-5.408,3.355-4.217,7.624,4.735,1.96,4.736-2.3,8.018-3.881,1.674,1.554,3.917,5.111,6.759,4.322,4.361-2.538-2.189-5.95-3.1-8.065,1.165-2.032,7.307-5.455,3.033-8.033-2.589-.82-5.026,2.918-6.69,4.329-3.159-1.694-4.834-6.534-7.641-3.944-2.68,2.473,2.7,6.329,3.84,7.648Z" transform="translate(-1826.075 -825.912)" fill="#2d4ca7" fill-rule="evenodd"/>
            <path id="Path_29846-2" data-name="Path 29846" d="M240.493,643.16l4.67-.513c-.334-2.247-.983-3.628-.5-5.837,4.483-4.1,5.745,2.835,4.606,7.118-1.186,4.462-3.915,6.253-1.718,12.022l4.281-.7c-1.3-5.418.4-6.392,1.932-10.57,3.723-10.141-4.877-17.055-11.343-12.159-3.355,2.541-2.7,5.877-1.928,10.637Z" transform="translate(-226.559 -596.134)" fill="#4d64a8" fill-rule="evenodd"/>
            <path id="Path_29847-2" data-name="Path 29847" d="M2792.028,884.9c-1.239,2.026-6.371,5.035-3.949,7.556,2.762,2.874,5.972-2.913,8.1-3.91,1.069,1.737,3.111,5.358,6.188,4.393,3.876-2.7-1.459-5.445-3.177-8.039,1.068-1.715,2.27-2.434,3.518-3.721,3.064-3.16-1.311-8.155-6.539.086-2.394-1.11-5.007-6.3-7.811-4.078-3.083,2.439,2.6,5.828,3.666,7.711Z" transform="translate(-2632.759 -828.231)" fill="#2d4ca7" fill-rule="evenodd"/>
            <path id="Path_29848-2" data-name="Path 29848" d="M1248.463,1444.025l12.718-.011.009-13.6-7.358-.085c-2.493.139-4.242,2.292-4.989,4.527s-.393,6.574-.379,9.174Z" transform="translate(-1179.094 -1351.184)" fill="#f5941d" fill-rule="evenodd"/>
            <path id="Path_29849-2" data-name="Path 29849" d="M427.683,1319.753c.336-.19-.91-1.348,1.3-.05-.7.65.32.234-.733.376C426.36,1320.335,428.6,1320.369,427.683,1319.753ZM420,1330.377l-.493,3.117,6.022-.863c.029-5.372,2.35-1.5,2.639-7.436l-.142-3.51c2.895.411,2.543.252,4.4,1.7,1.694,1.016,6.123,3.821,7.223,4.986a8.831,8.831,0,0,1-2.438,1.257c1.666,1.037,1.749,3.29,2.372,4.884,1.469-.737,5.759-4.888,6.471-6.891-2.106-2.242-5.957-3.459-8.4-5.316a27.515,27.515,0,0,1-5.009-2.424c-1.192-.788-1.012-1.07-1.8-1.928-1.2-1.309-.657-.063-1.724-1.962-.347,1.345.009.5-1.286.825-.026.006-1.213.068-1.577.139.04,1.093-.047.66.381,1.481l.725.9c-2.228,2.346-1.608,1.949-1.172,5.385-1.71.464-.25-1.869-1.564.5a20.793,20.793,0,0,1-1.053,2.311c-.842,1.308-1.936,2.642-3.581,2.844Z" transform="translate(-396.231 -1243.197)" fill="#f79997" fill-rule="evenodd"/>
            <path id="Path_29850-2" data-name="Path 29850" d="M4365.406,2684.03a20.4,20.4,0,0,0,.159,2.68,11.24,11.24,0,0,1,.083,1.682c-.269,1.4.414.284-.671,1.1l2.283,13.169c1.961-.265.781.011.528-6.005-.105-2.511-.048-4.951-.053-7.462-.008-4.049-.286-10.337.819-13.563.036.109-.666,9.994-.687,11.906a123.128,123.128,0,0,0,.49,13.208c.515-.616.083.1.468-.867l.548-2.41c.229-1.194.416-1.881.6-3.093.34-2.2.7-4.494,1.031-6.815.777-5.408.641-9.3.936-14.661-.646-.738-.837-1.4-1.519-2.169-4.888.039-5.422,8.387-5.017,13.3Z" transform="translate(-4122.757 -2522.762)" fill="#8b9cf5" fill-rule="evenodd"/>
            <path id="Path_29852-2" data-name="Path 29852" d="M380.975,1302.211c.081.088.211.1.243.261s.184.2.223.259a2.677,2.677,0,0,1,.448.792c1.646-.2,2.74-1.536,3.581-2.844a20.837,20.837,0,0,0,1.053-2.311c1.314-2.367-.146-.034,1.564-.5-.435-3.435-1.056-3.039,1.172-5.385l-.725-.9c-.428-.821-.341-.388-.381-1.481.365-.07,1.552-.132,1.577-.139,1.3-.328.94.52,1.286-.825-1.284-2.348-3.373-1.745-4.979-.327-3.634,3.208-1.624,1.09-4.664,2.8-4.791,2.7-.31,4.663-.4,10.6Z" transform="translate(-358.117 -1216.343)" fill="#1a206b" fill-rule="evenodd"/>
            <path id="Path_29853-2" data-name="Path 29853" d="M54.33,1856.905l.074.7c.867,2.156,5.178,4.413,7.043,5.84,1.25.956,2.24,1.753,3.5,2.715,1.438,1.1,2.254,2.135,3.59,3.147l.04-1.862c1.358-.905,1.271-.281,2.27-1.426-.518-.4-.081-.036-.829-.369l-1.1-1.6c-.646,1.224-.279.531-1.041,1.249-1.5-2.094-2.15-2.175-3.836-3.612a36.673,36.673,0,0,1-4.064-3.952,8.546,8.546,0,0,1,4.222-3.393c-.077-.093-.2-.347-.239-.272l-2.143-2.163c-.9-.959-1.047-1.537-2.277-2.283a59.828,59.828,0,0,1-5.2,7.279Z" transform="translate(-51.314 -1747.218)" fill="#f79997" fill-rule="evenodd"/>
            <path id="Path_29854-2" data-name="Path 29854" d="M4219.9,2821.292a70.065,70.065,0,0,0,3.692,6.97,60.147,60.147,0,0,1,3.657,6.489l-.027.058-2.283-13.168c-.106-2.077-.621-2.641-1.182-4.557-1.037-2.5-3.289-7.685-6.54-6.17-1.808,2.849,1.747,8,2.682,10.378Z" transform="translate(-3982.727 -2654.905)" fill="#4c63a6" fill-rule="evenodd"/>
            <path id="Path_29855-2" data-name="Path 29855" d="M3,952.366l2.392-1.745c-.9-1.8-2.88-2.393-1.564-4.529,2.675-1.777,4.321,2.193,4.793,4.733.755,4.06.1,4.923,3.023,7.111a16.665,16.665,0,0,0,2.073-1.917c-2.531-3.5-1.4-3.041-2.351-7.565C8.81,936.276-6.324,944.614,3,952.366Z" transform="translate(0.002 -890.234)" fill="#8b9cf5" fill-rule="evenodd"/>
            <path id="Path_29856-2" data-name="Path 29856" d="M4435.62,2892.026l.355.027c.746-2.424,11.769-18,9.138-20.451C4439.71,2868.766,4436.2,2887.025,4435.62,2892.026Z" transform="translate(-4189.481 -2712.202)" fill="#4c63a6" fill-rule="evenodd"/>
            <path id="Path_29857-2" data-name="Path 29857" d="M530.679,1451.018c-.288,5.936-2.61,2.065-2.639,7.436,5.519-.686,6.966-1.562,11.685-3a8.819,8.819,0,0,0,2.438-1.257c-1.1-1.165-5.529-3.971-7.223-4.987-.47.432,0,.216-1.092.739a9.591,9.591,0,0,1-.918.328A14.114,14.114,0,0,1,530.679,1451.018Z" transform="translate(-498.738 -1369.021)" fill="#cdddf2" fill-rule="evenodd"/>
            <path id="Path_29858-2" data-name="Path 29858" d="M160.212,1882.175a8.549,8.549,0,0,0-4.222,3.394,36.9,36.9,0,0,0,4.064,3.952c1.686,1.437,2.334,1.518,3.836,3.611.762-.718.4-.024,1.041-1.249l.6-12.791c-1.521.619-3.346,2.514-4.214,3.018C160.278,1882.714,161.008,1883.043,160.212,1882.175Z" transform="translate(-147.334 -1775.049)" fill="#cdddf2" fill-rule="evenodd"/>
            <path id="Path_29859-2" data-name="Path 29859" d="M868.03,2852.5c.5,2.844,1.611,6.223,1.355,9.065l.033.3.652-.187c.211-2.891-1.321-16.092.429-18.94.093.2.138-.08.152.543l-.389,3.568c-.1,1.565-.175,3.65-.158,5.253.021,1.969-.256,8.838.952,9.833l.048-.615,1.027-6.351c-1.662-2.945,3.072-11.993-.39-15.712-2.587.421-3.182,2.666-3.487,5.523-.4,3.707.549,6.344-.224,7.719Z" transform="translate(-819.862 -2681.933)" fill="#8b9cf5" fill-rule="evenodd"/>
            <path id="Path_29860-2" data-name="Path 29860" d="M1679.412,94.686c-.963-5.02,6.6-6.223,7.322-1.614C1687.592,98.555,1680.236,98.98,1679.412,94.686Zm-.887,2.486c-.85.917-4.67,4.873-1.632,3.781l2.616-2.607c3.143.855,5.427,1.543,7.588-.792,4.32-4.667-2.206-12.331-7.469-7.881-2.724,2.3-1.942,4.278-1.1,7.5Z" transform="translate(-1582.75 -83.661)" fill="#8597f4" fill-rule="evenodd"/>
            <path id="Path_29861-2" data-name="Path 29861" d="M54.35,1575.395a59.84,59.84,0,0,0,5.2-7.279l-.725-1.385,6.682-6.66c3.435-3.929,2.278-3.761,9.1-4.066l.493-3.117a2.66,2.66,0,0,0-.448-.791c-.038-.057-.191-.1-.222-.259s-.163-.173-.243-.261c-.706,1.028-5.244,3.711-6.636,4.736a34.954,34.954,0,0,0-5.6,5.176c-3.041,3.4-6.538,8.076-7.611,13.906Z" transform="translate(-51.334 -1465.708)" fill="#cdddf2" fill-rule="evenodd"/>
            <path id="Path_29862-2" data-name="Path 29862" d="M770.27,2956.6c.256-2.843-.856-6.221-1.355-9.066-.625-2.973-2.427-8.249-5.513-7.6a1.848,1.848,0,0,0-.116.344l-.193,1.063C763.032,2944.48,769.181,2954.015,770.27,2956.6Z" transform="translate(-720.747 -2776.973)" fill="#4c63a6" fill-rule="evenodd"/>
            <path id="Path_29864-2" data-name="Path 29864" d="M924.437,2988.171l-1.027,6.351c1.355-2.167,7.261-11.075,6.491-13.676-.429-.316.869-.9-1.474-.307C926.442,2981.039,924.819,2986.207,924.437,2988.171Z" transform="translate(-872.169 -2815.136)" fill="#4c63a6" fill-rule="evenodd"/>
            <path id="Path_29865-2" data-name="Path 29865" d="M4308.536,2786.113l.027-.058c-2.082.316-4.27-.161-5.76.622.689,1.739,4.267,1.028,8.2,1.028,1.524,0,3.044-.009,4.567.021,4.276.085,3-.308,3.42-1.382l-8.462-.284-.354-.027c-.833-.578.026.645-.4-.629-.015-.046-.127-1.1-.14-1.207a122.748,122.748,0,0,1-.49-13.208c.021-1.911.723-11.8.687-11.906-1.1,3.226-.828,9.514-.82,13.563,0,2.51-.052,4.95.054,7.461.253,6.017,1.432,5.741-.528,6.005Z" transform="translate(-4064.034 -2606.209)" fill="#525c78" fill-rule="evenodd"/>
            <path id="Path_29866-2" data-name="Path 29866" d="M346,2228.735l.037-.929c-5.808,1.162-9.9,1.806-15.778.019v3.156c4.216.451,12.983-.44,15.741-2.245Z" transform="translate(-311.933 -2104.413)" fill="#1a318c" fill-rule="evenodd"/>
            <path id="Path_29867-2" data-name="Path 29867" d="M3887.415,1237.526c-.23-3.47,1.012-9.758-.873-12.227a33.978,33.978,0,0,1-1.669,4.188c-.78,1.534-1.775,2.313-2.043,3.776A31.351,31.351,0,0,0,3887.415,1237.526Z" transform="translate(-3667.365 -1157.537)" fill="#f6941e" fill-rule="evenodd"/>
            <path id="Path_29868-2" data-name="Path 29868" d="M384.02,1109.776l.757,4.608,4.469-.717a11.869,11.869,0,0,0-.665-4.724Z" transform="translate(-362.71 -1047.636)" fill="#4d64a8" fill-rule="evenodd"/>
            <path id="Path_29869-2" data-name="Path 29869" d="M648.006,2921.079l-14.4.118v.333l41.061-.265-.514-.138-24.514.022c-1.208-1-.931-7.865-.952-9.834-.017-1.6.053-3.688.158-5.253l.389-3.567c-.014-.623-.059-.347-.152-.543-1.75,2.848-.217,16.049-.429,18.939l-.652.187Z" transform="translate(-598.45 -2741.149)" fill="#6f77a8" fill-rule="evenodd"/>
            <path id="Path_29870-2" data-name="Path 29870" d="M498.35,3217.351l.094,1.232c.706,1.023-.267.383,1.338.67.229.041,1.737.006,2.08,0a12.5,12.5,0,0,0,3.994-.3v-.333c-1.185-1.26-2.618-1.426-4.4-1.667l-1.391-.1C499.333,3217.41,499.8,3217.218,498.35,3217.351Z" transform="translate(-470.696 -3038.576)" fill="#2d3195" fill-rule="evenodd"/>
            <path id="Path_29871-2" data-name="Path 29871" d="M305.23,3221.957c.719,1.07-.51.368,1.377.721.178.034,1.771,0,2.083,0,5.559-.024,3.051.17,3.94-.741-2-1.85-4.337-1.485-7.116-1.314Z" transform="translate(-288.292 -3041.996)" fill="#2d3195" fill-rule="evenodd"/>
            <path id="Path_29872-2" data-name="Path 29872" d="M230.139,1218.519a10.8,10.8,0,0,0,2.349-1.881,4.755,4.755,0,0,0-1.934-2.363,4.572,4.572,0,0,0-2.352,1.949,5.39,5.39,0,0,0,1.938,2.294Z" transform="translate(-215.538 -1147.124)" fill="#8b9cf5" fill-rule="evenodd"/>
            <path id="Path_29873-2" data-name="Path 29873" d="M1354.176,1437.143l.458-.007-.1-13.943-6.544-.143-1.165.4,7.358.085Z" transform="translate(-1272.09 -1344.314)" fill="#efb572" fill-rule="evenodd"/>
            <path id="Path_29874-2" data-name="Path 29874" d="M3699.19,884.955c.556,1.422,2.836,3.155,4.311,3.134.134-1.751-.278-1.546-1.514-2.416C3700.969,884.958,3700.076,883.952,3699.19,884.955Z" transform="translate(-3493.917 -835.68)" fill="#f9fafc" fill-rule="evenodd"/>
            <path id="Path_29875-2" data-name="Path 29875" d="M4343.68,2911.264c.562,1.916,1.076,2.48,1.181,4.557,1.085-.821.4.3.671-1.1a11.119,11.119,0,0,0-.083-1.682,20.562,20.562,0,0,1-.159-2.679,7.643,7.643,0,0,0-1.113.547A5.651,5.651,0,0,0,4343.68,2911.264Z" transform="translate(-4102.643 -2749.086)" fill="#f6f8fa" fill-rule="evenodd"/>
            <path id="Path_29876-2" data-name="Path 29876" d="M307.978,3112.14c-1.53.635-1.634.423-3.307.421l.034-4.126h-.525l.331,4.423a10.859,10.859,0,0,0,1.973.218C308.233,3112.893,307.658,3113.2,307.978,3112.14Z" transform="translate(-287.301 -2936.174)" fill="#8698c9" fill-rule="evenodd"/>
            <path id="Path_29877-2" data-name="Path 29877" d="M508.729,3197.289l1.391.1.523-1.174c-1.217,0-2.46-.34-3,.414C507.958,3197.354,506.661,3196.731,508.729,3197.289Z" transform="translate(-479.363 -3019.012)" fill="#eef1f5" fill-rule="evenodd"/>
          </g>
        </g>
      </g>
    </g>
  </g>
</svg>
