<svg id="Group_452" data-name="Group 452" xmlns="http://www.w3.org/2000/svg" width="66.312" height="17.67" viewBox="0 0 66.312 17.67">
  <path id="Path_757" data-name="Path 757" d="M43.617,6.749H38.46a.716.716,0,0,0-.708.6L35.665,20.58a.43.43,0,0,0,.425.5h2.462a.716.716,0,0,0,.708-.606l.563-3.567a.716.716,0,0,1,.707-.606h1.633c3.4,0,5.358-1.644,5.871-4.9a3.973,3.973,0,0,0-.658-3.33,4.785,4.785,0,0,0-3.76-1.317Zm.6,4.831c-.282,1.851-1.7,1.851-3.063,1.851h-.778l.546-3.456a.43.43,0,0,1,.425-.363H41.7c.931,0,1.81,0,2.264.531a1.719,1.719,0,0,1,.25,1.437Zm14.823-.06h-2.47a.43.43,0,0,0-.425.363l-.109.691-.173-.25a3.516,3.516,0,0,0-2.917-1.035,5.68,5.68,0,0,0-5.515,4.967,4.662,4.662,0,0,0,.92,3.794,3.865,3.865,0,0,0,3.111,1.256,4.726,4.726,0,0,0,3.419-1.414l-.11.686a.43.43,0,0,0,.424.5h2.225a.716.716,0,0,0,.708-.606l1.335-8.454a.428.428,0,0,0-.423-.5Zm-3.443,4.807a2.753,2.753,0,0,1-2.787,2.358,1.913,1.913,0,0,1-2.046-2.4,2.765,2.765,0,0,1,2.768-2.377,2.084,2.084,0,0,1,1.647.673A2.138,2.138,0,0,1,55.592,16.327Zm16.6-4.807H69.708a.719.719,0,0,0-.594.314l-3.423,5.042L64.24,12.031a.719.719,0,0,0-.688-.511H61.113a.43.43,0,0,0-.408.569l2.734,8.023-2.57,3.628a.43.43,0,0,0,.351.679H63.7a.716.716,0,0,0,.589-.308l8.255-11.916a.43.43,0,0,0-.353-.675Z" transform="translate(-35.66 -6.748)" fill="#253b80"/>
  <path id="Path_758" data-name="Path 758" d="M92.4,6.749H87.24a.716.716,0,0,0-.707.6L84.446,20.58a.429.429,0,0,0,.424.5h2.647a.5.5,0,0,0,.495-.424L88.6,16.9a.716.716,0,0,1,.707-.606h1.632c3.4,0,5.358-1.644,5.871-4.9a3.97,3.97,0,0,0-.658-3.33A4.781,4.781,0,0,0,92.4,6.749Zm.6,4.831c-.281,1.851-1.7,1.851-3.063,1.851h-.778L89.7,9.974a.428.428,0,0,1,.424-.363h.357c.931,0,1.81,0,2.264.531a1.719,1.719,0,0,1,.25,1.437Zm14.822-.06h-2.468a.428.428,0,0,0-.424.363l-.109.691-.173-.25a3.514,3.514,0,0,0-2.916-1.035,5.679,5.679,0,0,0-5.514,4.967,4.665,4.665,0,0,0,.919,3.794,3.867,3.867,0,0,0,3.111,1.256,4.726,4.726,0,0,0,3.419-1.414l-.11.686a.43.43,0,0,0,.425.5H106.2a.716.716,0,0,0,.707-.606l1.336-8.454a.431.431,0,0,0-.426-.5Zm-3.443,4.807a2.752,2.752,0,0,1-2.787,2.358,1.913,1.913,0,0,1-2.046-2.4,2.766,2.766,0,0,1,2.768-2.377,2.084,2.084,0,0,1,1.647.673A2.127,2.127,0,0,1,104.372,16.327Zm6.355-9.215L108.61,20.58a.429.429,0,0,0,.424.5h2.128a.715.715,0,0,0,.708-.606l2.088-13.225a.43.43,0,0,0-.424-.5h-2.383a.431.431,0,0,0-.424.364Z" transform="translate(-47.651 -6.748)" fill="#179bd7"/>
</svg>
