<svg xmlns="http://www.w3.org/2000/svg" width="66.68" height="17.175" viewBox="0 0 66.68 17.175">
  <g id="Group_165" data-name="Group 165" transform="translate(0 0)">
    <path id="Path_651" data-name="Path 651" d="M342.269,250.7c-.239.709-4.413,12.162-5.806,15.972l0,0a.074.074,0,0,1-.008.024,1.891,1.891,0,0,1-1.642,1.176h-2.223c1.351-3.7,4.464-12.23,6.253-17.175Z" transform="translate(-315.409 -250.699)" fill="#939595"/>
    <path id="Path_652" data-name="Path 652" d="M409.343,289.96l-1.43,3.924a1.922,1.922,0,0,1-1.659,1.227h-2.376a6.352,6.352,0,0,0,.606-1.227l1.432-3.922h-3.441l-1.427,3.922a1.933,1.933,0,0,1-1.665,1.227h-2.378a6.2,6.2,0,0,0,.6-1.227l1.433-3.924h-3.438l-1.429,3.924a1.927,1.927,0,0,1-1.662,1.227H381.538a6.025,6.025,0,0,0,.613-1.2l.363-1.005c.935-2.571-.4-4.662-2.965-4.662h-3.912l-1.246,3.436H378.3a.83.83,0,0,1,.78,1.226l-.381,1.005a1.894,1.894,0,0,1-1.655,1.2H371.4l-1.248,3.436h34.872a7.3,7.3,0,0,0,6.318-4.639l1.442-3.948Z" transform="translate(-346.103 -281.373)" fill="#ee7623"/>
    <path id="Path_653" data-name="Path 653" d="M247.764,298.55h-9.077l1.251-3.436h9.077a1.942,1.942,0,0,0,1.673-1.227l.356-.981a.83.83,0,0,0-.781-1.226h-5.636l1.246-3.436h5.635c2.571,0,3.9,2.091,2.965,4.662l-.351.981a7.386,7.386,0,0,1-6.358,4.663" transform="translate(-238.687 -281.376)" fill="#ee7623"/>
  </g>
</svg>
