<svg id="Group_454" data-name="Group 454" xmlns="http://www.w3.org/2000/svg" width="52.51" height="17.035" viewBox="0 0 52.51 17.035">
  <g id="Group_453" data-name="Group 453" transform="translate(0)">
    <path id="Path_764" data-name="Path 764" d="M33.989,68.27H29.7l2.678-16.457h4.285ZM26.1,51.813,22.015,63.132l-.483-2.438h0l-1.442-7.4a1.834,1.834,0,0,0-2.033-1.482H11.305l-.079.279a16.029,16.029,0,0,1,4.482,1.881l3.723,14.3h4.464l6.817-16.458H26.1ZM59.8,68.27h3.934l-3.43-16.458H56.861a1.969,1.969,0,0,0-1.978,1.226L48.493,68.27h4.466l.893-2.445H59.3Zm-4.715-5.821,2.251-6.159L58.6,62.449Zm-6.259-6.678.611-3.534a12.367,12.367,0,0,0-3.854-.718c-2.126,0-7.176.929-7.176,5.448,0,4.252,5.926,4.3,5.926,6.538s-5.316,1.833-7.07.425l-.637,3.7a12.007,12.007,0,0,0,4.836.929c2.924,0,7.335-1.514,7.335-5.634,0-4.279-5.98-4.677-5.98-6.538s4.173-1.622,6.007-.611Z" transform="translate(-11.226 -51.519)" fill="#2566af"/>
  </g>
  <path id="Path_767" data-name="Path 767" d="M21.532,61.069l-1.442-7.4a1.834,1.834,0,0,0-2.033-1.482H11.305l-.079.279a16.6,16.6,0,0,1,6.359,3.193A12.833,12.833,0,0,1,21.532,61.069Z" transform="translate(-11.226 -51.892)" fill="#e6a540"/>
</svg>
