<svg xmlns="http://www.w3.org/2000/svg" width="19" height="20" viewBox="0 0 19 20">
  <path id="Union_10" data-name="Union 10" d="M-2054.706,20a3,3,0,0,1-3-3v-.667a3,3,0,0,1,3-3h.706a3,3,0,0,1,3,3V17a3,3,0,0,1-3,3ZM-2067,20a3,3,0,0,1-3-3v-.667a3,3,0,0,1,3-3h.707a3,3,0,0,1,3,3V17a3,3,0,0,1-3,3Zm12.295-13.333a3,3,0,0,1-3-3V3a3,3,0,0,1,3-3h.706a3,3,0,0,1,3,3v.667a3,3,0,0,1-3,3Zm-12.295,0a3,3,0,0,1-3-3V3a3,3,0,0,1,3-3h.707a3,3,0,0,1,3,3v.667a3,3,0,0,1-3,3Z" transform="translate(2070)" fill="#7e7e7e"/>
</svg>
