<svg xmlns="http://www.w3.org/2000/svg" width="19.372" height="14.654" viewBox="0 0 19.372 14.654">
  <g id="credit-card" transform="translate(0.25 0.25)">
    <path id="Path_3396" data-name="Path 3396" d="M6,12.786A.786.786,0,0,1,6.786,12H9.932a.786.786,0,0,1,0,1.573H6.786A.786.786,0,0,1,6,12.786Z" transform="translate(-2.855 -8.068)" fill="#00354e" stroke="#cfd9dd" stroke-width="0.5"/>
    <path id="Path_3397" data-name="Path 3397" d="M3.145,4.5A3.145,3.145,0,0,0,0,7.645v7.863a3.145,3.145,0,0,0,3.145,3.145H15.727a3.145,3.145,0,0,0,3.145-3.145V7.645A3.145,3.145,0,0,0,15.727,4.5ZM15.727,6.073H3.145A1.573,1.573,0,0,0,1.573,7.645v5.5H17.3v-5.5A1.573,1.573,0,0,0,15.727,6.073Zm1.573,8.65H1.573v.786a1.573,1.573,0,0,0,1.573,1.573H15.727A1.573,1.573,0,0,0,17.3,15.509Z" transform="translate(0 -4.5)" fill="#00354e" stroke="#cfd9dd" stroke-width="0.5" fill-rule="evenodd"/>
  </g>
</svg>
