<svg xmlns="http://www.w3.org/2000/svg" width="28.603" height="22.424" viewBox="0 0 28.603 22.424">
  <path id="delivery-truck" d="M30.772,17.588l-3.065-7.151a1.022,1.022,0,0,0-.94-.623H23.7V7.772A1.022,1.022,0,0,0,22.681,6.75H3.272A1.022,1.022,0,0,0,2.25,7.772V25.138a1.022,1.022,0,0,0,1.022,1.022H5.458a4.086,4.086,0,0,0,7.886,0H19.76a4.086,4.086,0,0,0,7.886,0h2.186a1.022,1.022,0,0,0,1.022-1.022V17.987a1.022,1.022,0,0,0-.082-.4ZM23.7,11.858h2.39l2.187,5.108H23.7ZM9.4,27.181a2.043,2.043,0,1,1,2.043-2.043A2.043,2.043,0,0,1,9.4,27.181ZM19.76,24.116H13.344a4.086,4.086,0,0,0-7.886,0H4.293V8.793H21.659V21.624a4.086,4.086,0,0,0-1.9,2.493ZM23.7,27.181a2.043,2.043,0,1,1,2.043-2.043A2.043,2.043,0,0,1,23.7,27.181Zm5.108-3.065H27.646A4.086,4.086,0,0,0,23.7,21.052V19.009H28.81Z" transform="translate(-2.25 -6.75)" fill="#a74b2f"/>
</svg>
