<svg xmlns="http://www.w3.org/2000/svg" width="18.284" height="19.691" viewBox="0 0 18.284 19.691">
  <path id="Union_11" data-name="Union 11" d="M14.718,19.691a2.921,2.921,0,0,1-2.888-2.953v-.657a2.921,2.921,0,0,1,2.888-2.953H15.4a2.92,2.92,0,0,1,2.887,2.953v.657A2.92,2.92,0,0,1,15.4,19.691Zm-11.832,0A2.92,2.92,0,0,1,0,16.737v-.657a2.92,2.92,0,0,1,2.887-2.953h.68a2.92,2.92,0,0,1,2.887,2.953v.657a2.92,2.92,0,0,1-2.887,2.953ZM14.718,6.563A2.921,2.921,0,0,1,11.831,3.61V2.953A2.921,2.921,0,0,1,14.718,0H15.4a2.92,2.92,0,0,1,2.887,2.953V3.61A2.92,2.92,0,0,1,15.4,6.563Zm-11.832,0A2.92,2.92,0,0,1,0,3.61V2.953A2.92,2.92,0,0,1,2.887,0h.68A2.92,2.92,0,0,1,6.453,2.953V3.61A2.92,2.92,0,0,1,3.567,6.563Z" fill="#00354e"/>
</svg>
