<svg xmlns="http://www.w3.org/2000/svg" width="20.588" height="20.603" viewBox="0 0 20.588 20.603">
  <g id="cart" transform="translate(-1.125 -1.125)">
    <path id="Path_3461" data-name="Path 3461" d="M7.3,4.558V5.931H20.34V8.648L18.818,13.48H6.869L5.154,1.125H1.125V2.5H3.959L5.674,14.852h14.15l1.889-5.993v-4.3Z" fill="#00354e"/>
    <path id="Path_3462" data-name="Path 3462" d="M10.689,25.9a2.745,2.745,0,1,0,2.745,2.745A2.748,2.748,0,0,0,10.689,25.9Zm0,4.118a1.373,1.373,0,1,1,1.373-1.373,1.373,1.373,0,0,1-1.373,1.373Z" transform="translate(-2.659 -9.662)" fill="#00354e"/>
    <path id="Path_3463" data-name="Path 3463" d="M26.439,25.9a2.745,2.745,0,1,0,2.745,2.745A2.748,2.748,0,0,0,26.439,25.9Zm0,4.118a1.373,1.373,0,1,1,1.373-1.373A1.373,1.373,0,0,1,26.439,30.017Z" transform="translate(-8.802 -9.662)" fill="#00354e"/>
  </g>
</svg>
