<svg xmlns="http://www.w3.org/2000/svg" width="19.915" height="20.745" viewBox="0 0 19.915 20.745">
  <g id="notification-outline-badged" transform="translate(-3.05 -1)">
    <path id="Path_3400" data-name="Path 3400" d="M16.991,33.421A1.664,1.664,0,0,0,18.6,32H15.32A1.664,1.664,0,0,0,16.991,33.421Z" transform="translate(-4.622 -11.677)" fill="#00354e"/>
    <path id="Path_3401" data-name="Path 3401" d="M21.413,18.016a8.976,8.976,0,0,1-1.565-1.826,7.873,7.873,0,0,1-.841-3V10.112A6.807,6.807,0,0,0,18.907,9a4.638,4.638,0,0,1-1.4-.524,5.541,5.541,0,0,1,.249,1.646V13.2a8.876,8.876,0,0,0,1.028,3.646,10.079,10.079,0,0,0,1.521,1.87H4.347a10.079,10.079,0,0,0,1.521-1.87A8.876,8.876,0,0,0,6.9,13.2V10.112A5.485,5.485,0,0,1,12.369,4.6a5.367,5.367,0,0,1,2.967.9,4.669,4.669,0,0,1-.162-1.091V4.016A6.6,6.6,0,0,0,13.1,3.393V2.607a.832.832,0,1,0-1.664,0v.817a6.738,6.738,0,0,0-5.8,6.688v3.079a7.873,7.873,0,0,1-.841,3,8.976,8.976,0,0,1-1.54,1.826.623.623,0,0,0-.212.467v.848a.623.623,0,0,0,.623.623H21a.623.623,0,0,0,.623-.623v-.848A.623.623,0,0,0,21.413,18.016Z" transform="translate(0 -0.292)" fill="#00354e"/>
    <path id="Path_3402" data-name="Path 3402" d="M31.233,4.117A3.117,3.117,0,1,1,28.117,1,3.117,3.117,0,0,1,31.233,4.117Z" transform="translate(-8.268)" fill="#f80"/>
  </g>
</svg>
