<svg xmlns="http://www.w3.org/2000/svg" width="21.718" height="22.306" viewBox="0 0 21.718 22.306">
  <g id="settings" transform="translate(-2.715 -2.295)">
    <path id="Path_3464" data-name="Path 3464" d="M22.357,14.055V12.833l1.534-1.342a1.6,1.6,0,0,0,.3-2.037l-1.885-3.2a1.611,1.611,0,0,0-1.893-.719l-1.942.655a9.068,9.068,0,0,0-1.047-.6L17.02,3.581a1.6,1.6,0,0,0-1.6-1.286H11.683a1.6,1.6,0,0,0-1.6,1.286L9.678,5.594a9.171,9.171,0,0,0-1.055.6l-1.9-.687a1.6,1.6,0,0,0-.511-.048,1.6,1.6,0,0,0-1.382.8l-1.885,3.2a1.6,1.6,0,0,0,.327,2.005l1.51,1.382v1.222L3.272,15.4a1.6,1.6,0,0,0-.327,2.037l1.885,3.2a1.611,1.611,0,0,0,1.893.719L8.664,20.7a9.068,9.068,0,0,0,1.047.6l.408,2.013a1.6,1.6,0,0,0,1.6,1.286h3.771a1.6,1.6,0,0,0,1.6-1.286l.408-2.013a9.171,9.171,0,0,0,1.055-.6l1.934.655a1.611,1.611,0,0,0,1.893-.719l1.821-3.2a1.6,1.6,0,0,0-.327-2.005Zm-1.43,5.784-2.74-.927a7.078,7.078,0,0,1-2.165,1.254l-.567,2.868H11.684L11.117,20.2a7.478,7.478,0,0,1-2.157-1.254l-2.748.895-1.885-3.2L6.5,14.726a7.111,7.111,0,0,1,0-2.5L4.326,10.252l1.885-3.2,2.74.927a7.078,7.078,0,0,1,2.165-1.254l.567-2.868h3.771L16.022,6.7A7.478,7.478,0,0,1,18.18,7.951l2.748-.895,1.885,3.2-2.173,1.917a7.111,7.111,0,0,1,0,2.5l2.173,1.973Z" fill="#00354e"/>
    <path id="Path_3465" data-name="Path 3465" d="M16.043,20.837a4.746,4.746,0,1,1,3.4-1.39A4.793,4.793,0,0,1,16.043,20.837Zm0-7.989a3.124,3.124,0,1,0,2.281.914,3.124,3.124,0,0,0-2.281-.914Z" transform="translate(-2.474 -2.596)" fill="#00354e"/>
  </g>
</svg>
