<svg id="bag" xmlns="http://www.w3.org/2000/svg" width="21.127" height="23.39" viewBox="0 0 21.127 23.39">
  <path id="Path_735" data-name="Path 735" d="M21.868,10.509H3.759V24.091A1.509,1.509,0,0,0,5.268,25.6H20.359a1.509,1.509,0,0,0,1.509-1.509ZM2.25,9V24.091a3.018,3.018,0,0,0,3.018,3.018H20.359a3.018,3.018,0,0,0,3.018-3.018V9Z" transform="translate(-2.25 -3.718)" fill="#00354e" fill-rule="evenodd"/>
  <path id="Path_736" data-name="Path 736" d="M15.407,2.634a3.773,3.773,0,0,0-3.773,3.773H10.125a5.282,5.282,0,1,1,10.563,0H19.179A3.773,3.773,0,0,0,15.407,2.634Z" transform="translate(-4.843 -1.125)" fill="#00354e"/>
</svg>
