<?xml version="1.0" encoding="UTF-8"?>
<!DOCTYPE svg PUBLIC "-//W3C//DTD SVG 1.1//EN" "http://www.w3.org/Graphics/SVG/1.1/DTD/svg11.dtd">
<!-- Creator: CorelDRAW 2018 (64-Bit Evaluation Version) -->
<svg xmlns="http://www.w3.org/2000/svg" xml:space="preserve" width="1.13672in" height="1.13792in" version="1.1" style="shape-rendering:geometricPrecision; text-rendering:geometricPrecision; image-rendering:optimizeQuality; fill-rule:evenodd; clip-rule:evenodd"
viewBox="0 0 573.96 574.56"
 xmlns:xlink="http://www.w3.org/1999/xlink">
 <defs>
  <style type="text/css">
   <![CDATA[
    .fil0 {fill:black}
   ]]>
  </style>
 </defs>
 <g id="Layer_x0020_1">
  <metadata id="CorelCorpID_0Corel-Layer"/>
  <path class="fil0" d="M394.6 23.02c36.03,0 54.77,3.06 83.34,17.55 67.2,34.09 95.21,125.26 52.79,195.95l-13.64 18.86c-24.78,25.51 -26.15,16.9 -26.09,38.93 0.03,10.84 0,21.68 0,32.51 -9.09,-6.09 -18.87,-20.65 -27.97,-26.98 -6.72,-4.68 -11.8,-1.99 -20.22,0.09 -20.44,5.05 -44.77,3.35 -67.27,3.35 -20.14,0 -42.43,-7.9 -56.08,-14.55 -16.17,-7.89 -27.56,-18.21 -40.06,-30.56 -5.22,-5.16 -11.06,-13.29 -15.06,-19.69 -10.05,-16.07 -16.31,-31.79 -19.65,-50.97l-2.49 -24.29 5.77 -37.96c10.98,-40.26 45.07,-78.96 84.53,-92.59 19.54,-6.74 36.29,-9.65 62.1,-9.65zm-97.53 396.84c0,20.67 22.42,13.94 22.42,4.48 0,-20.67 -22.42,-13.94 -22.42,-4.48zm91.92 -179.36c0,5.87 -0.85,7.6 4.13,11.58 15.61,12.46 28.26,-20.54 5.96,-20.54 -4,0 -10.09,5.09 -10.09,8.97zm-328.46 53.81c0,6.19 2.6,13.45 8.97,13.45l168.15 0c6.36,0 8.97,-7.27 8.97,-13.45 0,-3.29 -5.68,-8.97 -8.97,-8.97l-168.15 0c-3.29,0 -8.97,5.68 -8.97,8.97zm0 125.55c0,6.19 2.6,13.45 8.97,13.45l195.06 0c8.96,0 15.05,-11.14 7.84,-19.05 -1.74,-1.91 -4.18,-3.37 -7.84,-3.37l-195.06 0c-3.29,0 -8.97,5.68 -8.97,8.97zm364.33 -293.7c0,30.99 -35.87,18.14 -35.87,43.72 0,21.24 -4.17,40.36 11.21,40.36 15.18,0 11.21,-22.96 11.21,-36.99 5.04,-2.42 8.22,-2.44 13.26,-5.79 40.13,-26.68 25.3,-88.37 -27.84,-88.37 -42.64,0 -57.54,65.32 -30.94,58.82 16.33,-3.99 2.49,-26.33 25.26,-34.22 19.09,-6.62 33.7,8.53 33.7,22.49zm-364.33 230.93c0,6.19 2.6,13.45 8.97,13.45l241.02 0c6.36,0 8.97,-7.27 8.97,-13.45 0,-3.29 -5.68,-8.97 -8.97,-8.97l-241.02 0c-3.29,0 -8.97,5.68 -8.97,8.97zm-60.53 -86.32l0 179.36c0,19.27 11.33,43.22 24.99,54.6 31.39,26.15 55.2,20.5 100.56,20.5 22.43,0 16.46,-3.16 29.99,10.37 5.43,5.43 36.87,38.96 41.76,38.96 6.35,0 13.45,-1.5 13.45,-10.09l0 -39.23 113.22 0c39.16,0 75.11,-35.94 75.11,-75.11l0 -82.95c0,-9.7 -22.45,-15.86 -22.49,4.41l0.1 70.72c0.11,26.42 -13.72,48.68 -37.42,56.75 -17.74,6.04 -67.3,3.76 -89.28,3.76 -15.71,0 -31.43,0.06 -47.14,-0.06 -18.65,-0.14 -14.52,12.1 -14.52,32.56 -7.17,-4.8 -29.6,-30.81 -32.1,-31.79 -11.08,-4.32 -73.64,3.18 -93.9,-3.63 -10.29,-3.46 -13.53,-5.96 -20.87,-11.64 -4.54,-3.51 -11.21,-12.76 -13.78,-18.72 -3.39,-7.87 -5.25,-16.47 -5.25,-27.26l0 -163.67c0,-16.04 5.7,-34.14 17.13,-44.52l8.98 -6.71c3.79,-2.3 5.78,-3.65 10.44,-5.26 19.04,-6.59 66.07,-4.04 90.13,-4.04 5.95,0 42.54,0.81 46.56,-0.52 12.38,-4.11 7.13,-21.89 -1.72,-21.89l-118.83 0c-39.16,0 -75.11,35.94 -75.11,75.11zm454.02 -264.56c36.12,8.84 68.63,33.31 90.32,63.25 18.87,26.06 28.67,57.11 29.62,88.47l0 10.29c-0.79,25.29 -7.3,50.46 -19.43,73.04 -7.48,13.93 -28.28,41.78 -41.11,48.57l0.06 65.08c-0.28,6.47 -3.72,11.15 -10.15,11.15 -8.85,0 -9.95,-3.78 -15.97,-9.81 -7.26,-7.27 -31.29,-30.28 -34.47,-35.03 -12.79,6.14 -52.01,5.61 -68.38,5.61 -53.95,0 -101.59,-24.4 -133.08,-66.46 -5.89,-7.87 -10.44,-15.43 -14.89,-24.34 -14.79,-29.65 -16.81,-49.84 -16.81,-81.83 0,-11.15 3.35,-24.43 5.6,-33.64 2.37,-9.67 6.26,-19.29 10.47,-27.65 4.57,-9.06 8.32,-16.36 14.03,-24.09 8.75,-11.86 5.47,-7.2 13.36,-15.79 2,-2.18 2.2,-3.15 4.01,-4.96 17.46,-17.46 43.15,-32.93 69.1,-41.17 30.7,-9.75 86.24,-8.4 117.73,-0.7z"/>
 </g>
</svg>
