<svg xmlns="http://www.w3.org/2000/svg" width="19.881" height="19.881" viewBox="0 0 19.881 19.881">
  <g id="settings-sliders" transform="translate(0 0)">
    <path id="Path_3366" data-name="Path 3366" d="M.828,3.935H3.095a3.088,3.088,0,0,0,5.96,0h10a.828.828,0,0,0,0-1.657h-10a3.088,3.088,0,0,0-5.96,0H.828a.828.828,0,1,0,0,1.657ZM6.074,1.657a1.45,1.45,0,1,1-1.45,1.45,1.45,1.45,0,0,1,1.45-1.45Z" fill="#00354e"/>
    <path id="Path_3367" data-name="Path 3367" d="M19.053,10.528H16.786a3.087,3.087,0,0,0-5.959,0h-10a.828.828,0,1,0,0,1.657h10a3.087,3.087,0,0,0,5.959,0h2.266a.828.828,0,0,0,0-1.657Zm-5.246,2.278a1.45,1.45,0,1,1,1.45-1.45,1.45,1.45,0,0,1-1.45,1.45Z" transform="translate(0 -1.416)" fill="#00354e"/>
    <path id="Path_3368" data-name="Path 3368" d="M19.053,18.778h-10a3.088,3.088,0,0,0-5.96,0H.828a.828.828,0,1,0,0,1.657H3.095a3.088,3.088,0,0,0,5.96,0h10a.828.828,0,0,0,0-1.657ZM6.074,21.056a1.45,1.45,0,1,1,1.45-1.45,1.45,1.45,0,0,1-1.45,1.45Z" transform="translate(0 -2.832)" fill="#00354e"/>
  </g>
</svg>
