<svg xmlns="http://www.w3.org/2000/svg" width="24.015" height="24" viewBox="0 0 24.015 24">
  <path id="home" d="M23.135,9.076l-7.59-7.591a5.011,5.011,0,0,0-7.076,0L.88,9.076A2.98,2.98,0,0,0,0,11.2v9.823a3,3,0,0,0,3,3H21.013a3,3,0,0,0,3-3V11.2A2.98,2.98,0,0,0,23.135,9.076ZM15.009,22.022h-6V18.086a3,3,0,0,1,6,0Zm7-1a1,1,0,0,1-1,1h-4V18.086A5,5,0,0,0,7,18.086v3.936H3a1,1,0,0,1-1-1V11.2a1.009,1.009,0,0,1,.293-.707L9.884,2.9a3.01,3.01,0,0,1,4.247,0l7.59,7.591a1.009,1.009,0,0,1,.293.7Z" transform="translate(0 -0.023)" fill="#00354e"/>
</svg>
