<svg xmlns="http://www.w3.org/2000/svg" width="27.001" height="27.987" viewBox="0 0 22.001 21.987">
  <path id="home" d="M21.195,8.317,14.242,1.363a4.591,4.591,0,0,0-6.483,0L.806,8.317A2.73,2.73,0,0,0,0,10.261v9a2.75,2.75,0,0,0,2.75,2.75h16.5A2.75,2.75,0,0,0,22,19.261v-9A2.73,2.73,0,0,0,21.195,8.317ZM13.75,20.177H8.25V16.571a2.75,2.75,0,0,1,5.5,0Zm6.417-.917a.917.917,0,0,1-.917.917H15.584V16.571a4.583,4.583,0,0,0-9.167,0v3.606H2.75a.917.917,0,0,1-.917-.917v-9A.924.924,0,0,1,2.1,9.613L9.055,2.662a2.757,2.757,0,0,1,3.89,0L19.9,9.616a.924.924,0,0,1,.269.645Z" transform="translate(0 -0.023)" fill="#00354e"/>
</svg>
