<svg xmlns="http://www.w3.org/2000/svg" width="18.6" height="21.7" viewBox="0 0 18.6 21.7">
  <g id="logout" transform="translate(-4.5 -2.25)">
    <path id="Path_3466" data-name="Path 3466" d="M6.05,23.95h9.3A1.551,1.551,0,0,0,16.9,22.4V20.075H15.35V22.4H6.05V3.8h9.3V6.125H16.9V3.8a1.551,1.551,0,0,0-1.55-1.55H6.05A1.551,1.551,0,0,0,4.5,3.8V22.4a1.551,1.551,0,0,0,1.55,1.55Z" fill="#00354e"/>
    <path id="Path_3467" data-name="Path 3467" d="M19.454,19.454l2.78-2.779H11.25v-1.55H22.233l-2.779-2.779,1.1-1.1L25.2,15.9l-4.65,4.65Z" transform="translate(-2.1 -2.8)" fill="#00354e"/>
  </g>
</svg>
