<svg id="menu" xmlns="http://www.w3.org/2000/svg" width="24" height="24" viewBox="0 0 24 24">
  <path id="Path_3567" data-name="Path 3567" d="M4,0H7a4,4,0,0,1,4,4V7a4,4,0,0,1-4,4H4A4,4,0,0,1,0,7V4A4,4,0,0,1,4,0Z" fill="#00354e"/>
  <path id="Path_3568" data-name="Path 3568" d="M281.334,0h3a4,4,0,0,1,4,4V7a4,4,0,0,1-4,4h-3a4,4,0,0,1-4-4V4A4,4,0,0,1,281.334,0Z" transform="translate(-264.334)" fill="#00354e"/>
  <path id="Path_3569" data-name="Path 3569" d="M4,277.333H7a4,4,0,0,1,4,4v3a4,4,0,0,1-4,4H4a4,4,0,0,1-4-4v-3A4,4,0,0,1,4,277.333Z" transform="translate(0 -264.333)" fill="#00354e"/>
  <path id="Path_3570" data-name="Path 3570" d="M281.334,277.333h3a4,4,0,0,1,4,4v3a4,4,0,0,1-4,4h-3a4,4,0,0,1-4-4v-3A4,4,0,0,1,281.334,277.333Z" transform="translate(-264.334 -264.333)" fill="#00354e"/>
</svg>
