<svg xmlns="http://www.w3.org/2000/svg" width="22.802" height="23.751" viewBox="0 0 22.802 23.751">
  <g id="notification-outline-badged" transform="translate(-3.05 -1)">
    <path id="Path_3400" data-name="Path 3400" d="M17.233,33.627A1.906,1.906,0,0,0,19.074,32H15.32A1.906,1.906,0,0,0,17.233,33.627Z" transform="translate(-3.513 -8.876)" fill="#fff"/>
    <path id="Path_3401" data-name="Path 3401" d="M24.075,20.37a10.277,10.277,0,0,1-1.791-2.091,9.014,9.014,0,0,1-.963-3.433V11.32a7.793,7.793,0,0,0-.114-1.277,5.31,5.31,0,0,1-1.6-.6,6.345,6.345,0,0,1,.285,1.884v3.526a10.163,10.163,0,0,0,1.178,4.175,11.54,11.54,0,0,0,1.741,2.141H4.534a11.54,11.54,0,0,0,1.741-2.141,10.163,10.163,0,0,0,1.178-4.175V11.32A6.28,6.28,0,0,1,13.72,5.012a6.145,6.145,0,0,1,3.4,1.028,5.345,5.345,0,0,1-.186-1.249v-.45a7.551,7.551,0,0,0-2.369-.714v-.9a.953.953,0,1,0-1.906,0v.935A7.715,7.715,0,0,0,6.019,11.32v3.526a9.014,9.014,0,0,1-.963,3.433A10.277,10.277,0,0,1,3.293,20.37a.714.714,0,0,0-.243.535v.971a.714.714,0,0,0,.714.714H23.6a.714.714,0,0,0,.714-.714v-.971A.714.714,0,0,0,24.075,20.37Z" transform="translate(0 -0.222)" fill="#fff"/>
    <path id="Path_3402" data-name="Path 3402" d="M32.137,4.568A3.568,3.568,0,1,1,28.568,1,3.568,3.568,0,0,1,32.137,4.568Z" transform="translate(-6.285)" fill="#f80"/>
  </g>
</svg>
