<svg xmlns="http://www.w3.org/2000/svg" width="34.548" height="32.507" viewBox="0 0 34.548 32.507">
  <g id="support_ticket_icon" transform="translate(0.002 0.029)">
    <g id="_1563491472704" transform="translate(-0.002 -0.029)">
      <path id="Path_3583" data-name="Path 3583" d="M.011,90.228c0,2.5-.2,2.314.959,2.508a2.6,2.6,0,0,1,1.169,4.7A2.792,2.792,0,0,1,.982,97.9c-1.145.192-.97-.1-.97,2.419a3.719,3.719,0,0,0,3.619,3.543H27.04c.611,0,.931-1.309-.307-1.309h-.616c0-.741.1-1.618-.693-1.618s-.616.845-.616,1.618H3.556a2.37,2.37,0,0,1-1.847-1,3.76,3.76,0,0,1-.464-2.385,4.386,4.386,0,0,0,2.213-1.176,3.956,3.956,0,0,0,.664-4.317,3.76,3.76,0,0,0-.3-.545,3.212,3.212,0,0,0-.868-.9,2.753,2.753,0,0,0-.524-.323,3.272,3.272,0,0,0-.582-.265c-.652-.19-.6.1-.6-.939a2.484,2.484,0,0,1,2.232-2.618h21.33c0,.577-.176,1.868.788,1.634.625-.153.52-.982.52-1.634h4.928a2.337,2.337,0,0,1,1.788,1.06,3.729,3.729,0,0,1,.444,2.4,3.792,3.792,0,0,0-3,3.543,3.7,3.7,0,0,0,.947,2.827,3.859,3.859,0,0,0,2.056,1.177,4.425,4.425,0,0,1-.295,2.17c-.948,1.84-2.744,1.1-3.667,1.337a.637.637,0,0,0,.112,1.266H30.89a3.727,3.727,0,0,0,3.619-3.543c0-2.119.222-2.241-.854-2.458a2.364,2.364,0,0,1-1.085-.455,2.593,2.593,0,0,1,.957-4.614,2.739,2.739,0,0,0,.636-.133c.552-.263.345-1.151.345-2.426a3.769,3.769,0,0,0-3.7-3.465H3.707a3.769,3.769,0,0,0-3.7,3.465Z" transform="translate(0.002 -71.356)" fill="#00354e" fill-rule="evenodd"/>
      <path id="Path_3584" data-name="Path 3584" d="M36.482,109.867c.547.046.561.307,1.232.307.964,0,1.385-.876,1.385-1.849h.847c0,2.813,2.445,1.554,2.618,1.54.1.433.27.3.307.771a1.765,1.765,0,0,0-1,1.232c0,.932.293,1,.712,1.366a1.417,1.417,0,0,1,.288.329,2.2,2.2,0,0,0-.307.616c-.478-.011-.717-.307-1.154-.307-.986,0-1.463.852-1.463,1.849H39.1a2.814,2.814,0,0,0-.337-1.28c-.716-1.06-1.854-.27-2.28-.261a2.3,2.3,0,0,0-.307-.616c.213-.318.332-.325.595-.559.968-.86.039-2.2-.595-2.367.039-.465.208-.337.307-.771Zm-.154-1.463c-.529,0-.714.471-.975.95-.366.673-.643.877-.643,1.513,0,.32.932.822,1.154,1.154-.572.854-1.685.7-.881,2.035.133.22.22.392.337.588.131.217.206.343.336.588.442.835,1.2.174,1.822,0,.233-.066.236-.117.307.176.41,1.694-.414,1.541,2.7,1.541.771,0,.689-1.1.847-1.771.678.057,1.557.952,2.03.1.886-1.588,1.428-1.938.467-2.68a4.412,4.412,0,0,1-.648-.582c.4-.6,1.154-.591,1.154-1.385,0-.027-.891-2.232-1.54-2.232a2.72,2.72,0,0,0-.817.261c-.726.261-.634.281-.719-.027-.458-1.655.543-1.545-2.7-1.545-.739,0-.657.849-.765,1.472-.082.474-.256.3-.622.147-.094-.039-.79-.311-.847-.311Z" transform="translate(-28.538 -88.068)" fill="#00354e" fill-rule="evenodd"/>
      <path id="Path_3585" data-name="Path 3585" d="M68.58,5.6a.771.771,0,0,0,.538.693c.627,0,.9-.652,1.309-.923.272.183.474.567.815.654a.67.67,0,0,0,.8-.577c0-.453-.472-.671-.693-1a19.548,19.548,0,0,1,1.675-1.714c1.149-1.149,1.185-1.444,2.483-1.444a2.369,2.369,0,0,1,1.618,1.078,3.272,3.272,0,0,0,4.466,4.466,2.159,2.159,0,0,1,1.078,2c0,.833-.938,1.593-1.4,2.06A20.442,20.442,0,0,1,79.516,12.6c-.364-.245-.776-1.044-1.371-.524-.636.556.115,1.078.389,1.351.78.78.923,1.05,1.733.231l1.849-1.849c.79-.79,1.866-1.607,1.866-3.138a3.681,3.681,0,0,0-1.369-2.714c-1.2-1.375-1.24.018-2.635.018A2,2,0,0,1,78.2,3.05c.229-.44.389-.309.389-.92,0-.263-1.026-1.145-1.25-1.369A3.079,3.079,0,0,0,73.1.877L69.255,4.729c-.192.192-.673.565-.673.867Z" transform="translate(-56.401 0.029)" fill="#00354e" fill-rule="evenodd"/>
      <path id="Path_3586" data-name="Path 3586" d="M23.92,48.144a.651.651,0,0,0,.913.613c.266-.123,4.452-4.4,5.113-5.06.247-.247.751-.6.751-1.021a.579.579,0,0,0-.616-.616c-.43,0-1.2.927-1.636,1.367l-3.85,3.85c-.192.192-.673.565-.673.867Z" transform="translate(-19.672 -34.585)" fill="#00354e" fill-rule="evenodd"/>
      <path id="Path_3587" data-name="Path 3587" d="M52.092,126.943c0,2.509,3.31,2.055,3.31.616,0-.652-.513-.616-.771-.616-.357,0-.373.538-.847.538-.305,0-.385-.3-.385-.538,0-.5.923-.275.923-.923,0-1.341-2.232-.575-2.232.923Z" transform="translate(-42.839 -103.065)" fill="#00354e" fill-rule="evenodd"/>
      <path id="Path_3588" data-name="Path 3588" d="M139.549,140.517c0,1.039-.238,2.31.616,2.31s.693-1.2.693-1.925c0-.506-.087-.911-.52-1.018A.628.628,0,0,0,139.549,140.517Z" transform="translate(-114.741 -115.023)" fill="#00354e" fill-rule="evenodd"/>
      <path id="Path_3589" data-name="Path 3589" d="M139.573,113.984c0,.838-.217,2.31.616,2.31a.825.825,0,0,0,.508-.261c.266-.336.185-1.314.185-1.818C140.881,112.971,139.573,113.137,139.573,113.984Z" transform="translate(-114.765 -93.187)" fill="#00354e" fill-rule="evenodd"/>
      <path id="Path_3590" data-name="Path 3590" d="M105.87,52.648c0,.414.435.705.673.943s.529.673.943.673a.579.579,0,0,0,.616-.616c0-.376-1.117-1.618-1.694-1.618a.686.686,0,0,0-.538.616Z" transform="translate(-87.068 -42.785)" fill="#00354e" fill-rule="evenodd"/>
      <path id="Path_3591" data-name="Path 3591" d="M90.682,37.486c0,.462,1.28,1.618,1.54,1.618a.714.714,0,0,0,.693-.616c0-.467-1.309-1.618-1.463-1.618-.4,0-.771.094-.771.616Z" transform="translate(-74.576 -30.317)" fill="#00354e" fill-rule="evenodd"/>
    </g>
  </g>
</svg>
