<svg xmlns="http://www.w3.org/2000/svg" width="13.942" height="13.942" viewBox="0 0 13.942 13.942">
  <g id="track" transform="translate(-4.5 -4.5)">
    <path id="Path_3366" data-name="Path 3366" d="M15.824,18.147A2.324,2.324,0,1,0,13.5,15.824,2.324,2.324,0,0,0,15.824,18.147Z" transform="translate(-4.353 -4.353)" fill="#fff"/>
    <path id="Path_3367" data-name="Path 3367" d="M11.471,4.5a.775.775,0,0,1,.775.775V6.1A5.425,5.425,0,0,1,16.838,10.7h.829a.775.775,0,0,1,0,1.549h-.829a5.425,5.425,0,0,1-4.593,4.593v.829a.775.775,0,0,1-1.549,0v-.829A5.425,5.425,0,0,1,6.1,12.245H5.275a.775.775,0,0,1,0-1.549H6.1A5.426,5.426,0,0,1,10.7,6.1V5.275A.775.775,0,0,1,11.471,4.5ZM7.6,11.471a3.873,3.873,0,1,1,3.873,3.873A3.873,3.873,0,0,1,7.6,11.471Z" fill="#fff" fill-rule="evenodd"/>
  </g>
</svg>
